G04 MADE WITH FRITZING*
G04 WWW.FRITZING.ORG*
G04 DOUBLE SIDED*
G04 HOLES PLATED*
G04 CONTOUR ON CENTER OF CONTOUR VECTOR*
%ASAXBY*%
%FSLAX23Y23*%
%MOIN*%
%OFA0B0*%
%SFA1.0B1.0*%
%ADD10C,0.085000*%
%ADD11C,0.080000*%
%ADD12C,0.055440*%
%ADD13R,0.080000X0.079972*%
%ADD14R,0.001000X0.001000*%
%LNMASK0*%
G90*
G70*
G54D10*
X2598Y416D03*
X2342Y416D03*
X2598Y593D03*
X2342Y593D03*
G54D11*
X3292Y216D03*
X3392Y216D03*
X3492Y216D03*
X3592Y216D03*
X3692Y216D03*
X3792Y216D03*
X3892Y216D03*
X3992Y216D03*
X4092Y216D03*
X4192Y216D03*
X4292Y216D03*
X4392Y216D03*
X4492Y216D03*
X4592Y216D03*
X4692Y216D03*
X3292Y816D03*
X3392Y816D03*
X3492Y816D03*
X3592Y816D03*
X3692Y816D03*
X3792Y816D03*
X3892Y816D03*
X3992Y816D03*
X4092Y816D03*
X4192Y816D03*
X4292Y816D03*
X4392Y816D03*
X4492Y816D03*
X4592Y816D03*
X4692Y816D03*
G54D12*
X93Y565D03*
X93Y459D03*
X93Y352D03*
X1392Y566D03*
X1392Y460D03*
X1392Y352D03*
G54D10*
X1873Y566D03*
X1873Y466D03*
G54D13*
X3292Y216D03*
G54D14*
X44Y605D02*
X103Y605D01*
X1383Y605D02*
X1442Y605D01*
X44Y604D02*
X109Y604D01*
X1377Y604D02*
X1442Y604D01*
X44Y603D02*
X112Y603D01*
X1374Y603D02*
X1442Y603D01*
X44Y602D02*
X115Y602D01*
X1372Y602D02*
X1442Y602D01*
X44Y601D02*
X117Y601D01*
X1369Y601D02*
X1442Y601D01*
X44Y600D02*
X119Y600D01*
X1368Y600D02*
X1442Y600D01*
X44Y599D02*
X120Y599D01*
X1366Y599D02*
X1442Y599D01*
X44Y598D02*
X122Y598D01*
X1364Y598D02*
X1442Y598D01*
X44Y597D02*
X123Y597D01*
X1363Y597D02*
X1442Y597D01*
X44Y596D02*
X124Y596D01*
X1362Y596D02*
X1442Y596D01*
X44Y595D02*
X126Y595D01*
X1361Y595D02*
X1442Y595D01*
X44Y594D02*
X127Y594D01*
X1360Y594D02*
X1442Y594D01*
X44Y593D02*
X128Y593D01*
X1359Y593D02*
X1442Y593D01*
X44Y592D02*
X128Y592D01*
X1358Y592D02*
X1442Y592D01*
X44Y591D02*
X129Y591D01*
X1357Y591D02*
X1442Y591D01*
X44Y590D02*
X130Y590D01*
X1356Y590D02*
X1442Y590D01*
X44Y589D02*
X131Y589D01*
X1355Y589D02*
X1442Y589D01*
X44Y588D02*
X132Y588D01*
X1355Y588D02*
X1442Y588D01*
X44Y587D02*
X132Y587D01*
X1354Y587D02*
X1442Y587D01*
X44Y586D02*
X133Y586D01*
X1353Y586D02*
X1442Y586D01*
X44Y585D02*
X133Y585D01*
X1353Y585D02*
X1442Y585D01*
X44Y584D02*
X134Y584D01*
X1352Y584D02*
X1442Y584D01*
X44Y583D02*
X134Y583D01*
X1352Y583D02*
X1442Y583D01*
X44Y582D02*
X135Y582D01*
X1351Y582D02*
X1442Y582D01*
X44Y581D02*
X135Y581D01*
X1351Y581D02*
X1442Y581D01*
X44Y580D02*
X136Y580D01*
X1351Y580D02*
X1442Y580D01*
X44Y579D02*
X136Y579D01*
X1350Y579D02*
X1442Y579D01*
X44Y578D02*
X136Y578D01*
X1350Y578D02*
X1442Y578D01*
X44Y577D02*
X137Y577D01*
X1350Y577D02*
X1442Y577D01*
X44Y576D02*
X137Y576D01*
X1349Y576D02*
X1442Y576D01*
X44Y575D02*
X137Y575D01*
X1349Y575D02*
X1442Y575D01*
X44Y574D02*
X137Y574D01*
X1349Y574D02*
X1442Y574D01*
X44Y573D02*
X138Y573D01*
X1349Y573D02*
X1442Y573D01*
X44Y572D02*
X138Y572D01*
X1348Y572D02*
X1442Y572D01*
X44Y571D02*
X138Y571D01*
X1348Y571D02*
X1442Y571D01*
X44Y570D02*
X138Y570D01*
X1348Y570D02*
X1442Y570D01*
X44Y569D02*
X138Y569D01*
X1348Y569D02*
X1442Y569D01*
X44Y568D02*
X138Y568D01*
X1348Y568D02*
X1442Y568D01*
X44Y567D02*
X138Y567D01*
X1348Y567D02*
X1442Y567D01*
X44Y566D02*
X138Y566D01*
X1348Y566D02*
X1442Y566D01*
X44Y565D02*
X138Y565D01*
X1348Y565D02*
X1442Y565D01*
X44Y564D02*
X138Y564D01*
X1348Y564D02*
X1442Y564D01*
X44Y563D02*
X138Y563D01*
X1348Y563D02*
X1442Y563D01*
X44Y562D02*
X138Y562D01*
X1348Y562D02*
X1442Y562D01*
X44Y561D02*
X138Y561D01*
X1348Y561D02*
X1442Y561D01*
X44Y560D02*
X138Y560D01*
X1348Y560D02*
X1442Y560D01*
X44Y559D02*
X138Y559D01*
X1348Y559D02*
X1442Y559D01*
X44Y558D02*
X138Y558D01*
X1349Y558D02*
X1442Y558D01*
X44Y557D02*
X137Y557D01*
X1349Y557D02*
X1442Y557D01*
X44Y556D02*
X137Y556D01*
X1349Y556D02*
X1442Y556D01*
X44Y555D02*
X137Y555D01*
X1349Y555D02*
X1442Y555D01*
X5136Y555D02*
X5149Y555D01*
X44Y554D02*
X137Y554D01*
X1350Y554D02*
X1442Y554D01*
X5132Y554D02*
X5153Y554D01*
X44Y553D02*
X136Y553D01*
X1350Y553D02*
X1442Y553D01*
X5129Y553D02*
X5156Y553D01*
X44Y552D02*
X136Y552D01*
X1350Y552D02*
X1442Y552D01*
X5126Y552D02*
X5158Y552D01*
X44Y551D02*
X136Y551D01*
X1351Y551D02*
X1442Y551D01*
X5124Y551D02*
X5161Y551D01*
X44Y550D02*
X135Y550D01*
X1351Y550D02*
X1442Y550D01*
X5122Y550D02*
X5162Y550D01*
X44Y549D02*
X135Y549D01*
X1351Y549D02*
X1442Y549D01*
X5121Y549D02*
X5164Y549D01*
X44Y548D02*
X134Y548D01*
X1352Y548D02*
X1442Y548D01*
X5119Y548D02*
X5165Y548D01*
X44Y547D02*
X134Y547D01*
X1352Y547D02*
X1442Y547D01*
X5118Y547D02*
X5167Y547D01*
X44Y546D02*
X133Y546D01*
X1353Y546D02*
X1442Y546D01*
X5117Y546D02*
X5168Y546D01*
X44Y545D02*
X133Y545D01*
X1354Y545D02*
X1442Y545D01*
X5116Y545D02*
X5169Y545D01*
X44Y544D02*
X132Y544D01*
X1354Y544D02*
X1442Y544D01*
X5115Y544D02*
X5170Y544D01*
X44Y543D02*
X131Y543D01*
X1355Y543D02*
X1442Y543D01*
X5114Y543D02*
X5171Y543D01*
X44Y542D02*
X131Y542D01*
X1355Y542D02*
X1442Y542D01*
X5113Y542D02*
X5172Y542D01*
X44Y541D02*
X130Y541D01*
X1356Y541D02*
X1442Y541D01*
X5112Y541D02*
X5173Y541D01*
X44Y540D02*
X129Y540D01*
X1357Y540D02*
X1442Y540D01*
X5111Y540D02*
X5173Y540D01*
X44Y539D02*
X128Y539D01*
X1358Y539D02*
X1442Y539D01*
X5110Y539D02*
X5174Y539D01*
X44Y538D02*
X127Y538D01*
X1359Y538D02*
X1442Y538D01*
X5110Y538D02*
X5175Y538D01*
X44Y537D02*
X126Y537D01*
X1360Y537D02*
X1442Y537D01*
X5109Y537D02*
X5176Y537D01*
X44Y536D02*
X125Y536D01*
X1361Y536D02*
X1442Y536D01*
X5108Y536D02*
X5176Y536D01*
X44Y535D02*
X124Y535D01*
X1362Y535D02*
X1442Y535D01*
X5108Y535D02*
X5177Y535D01*
X44Y534D02*
X123Y534D01*
X1363Y534D02*
X1442Y534D01*
X5107Y534D02*
X5177Y534D01*
X44Y533D02*
X122Y533D01*
X1365Y533D02*
X1442Y533D01*
X5107Y533D02*
X5178Y533D01*
X44Y532D02*
X120Y532D01*
X1366Y532D02*
X1442Y532D01*
X5106Y532D02*
X5178Y532D01*
X44Y531D02*
X118Y531D01*
X1368Y531D02*
X1442Y531D01*
X5106Y531D02*
X5179Y531D01*
X44Y530D02*
X116Y530D01*
X1370Y530D02*
X1442Y530D01*
X5106Y530D02*
X5179Y530D01*
X44Y529D02*
X114Y529D01*
X1372Y529D02*
X1442Y529D01*
X5105Y529D02*
X5179Y529D01*
X44Y528D02*
X112Y528D01*
X1375Y528D02*
X1442Y528D01*
X5105Y528D02*
X5180Y528D01*
X44Y527D02*
X108Y527D01*
X1378Y527D02*
X1442Y527D01*
X5105Y527D02*
X5180Y527D01*
X44Y526D02*
X101Y526D01*
X1385Y526D02*
X1442Y526D01*
X5104Y526D02*
X5180Y526D01*
X5104Y525D02*
X5181Y525D01*
X5104Y524D02*
X5181Y524D01*
X5104Y523D02*
X5181Y523D01*
X5103Y522D02*
X5181Y522D01*
X5103Y521D02*
X5181Y521D01*
X5103Y520D02*
X5182Y520D01*
X5103Y519D02*
X5182Y519D01*
X5103Y518D02*
X5182Y518D01*
X5103Y517D02*
X5182Y517D01*
X5103Y516D02*
X5182Y516D01*
X5103Y515D02*
X5182Y515D01*
X5103Y514D02*
X5182Y514D01*
X5103Y513D02*
X5182Y513D01*
X5103Y512D02*
X5182Y512D01*
X5103Y511D02*
X5181Y511D01*
X5103Y510D02*
X5181Y510D01*
X5103Y509D02*
X5181Y509D01*
X5104Y508D02*
X5181Y508D01*
X5104Y507D02*
X5181Y507D01*
X5104Y506D02*
X5181Y506D01*
X5104Y505D02*
X5180Y505D01*
X5105Y504D02*
X5180Y504D01*
X5105Y503D02*
X5180Y503D01*
X5105Y502D02*
X5179Y502D01*
X5106Y501D02*
X5179Y501D01*
X5106Y500D02*
X5179Y500D01*
X5107Y499D02*
X5178Y499D01*
X44Y498D02*
X106Y498D01*
X1380Y498D02*
X1442Y498D01*
X5107Y498D02*
X5178Y498D01*
X44Y497D02*
X110Y497D01*
X1376Y497D02*
X1442Y497D01*
X5108Y497D02*
X5177Y497D01*
X44Y496D02*
X113Y496D01*
X1373Y496D02*
X1442Y496D01*
X5108Y496D02*
X5177Y496D01*
X44Y495D02*
X115Y495D01*
X1371Y495D02*
X1442Y495D01*
X5109Y495D02*
X5176Y495D01*
X44Y494D02*
X117Y494D01*
X1369Y494D02*
X1442Y494D01*
X5109Y494D02*
X5175Y494D01*
X44Y493D02*
X119Y493D01*
X1367Y493D02*
X1442Y493D01*
X5110Y493D02*
X5175Y493D01*
X44Y492D02*
X121Y492D01*
X1365Y492D02*
X1442Y492D01*
X5111Y492D02*
X5174Y492D01*
X44Y491D02*
X122Y491D01*
X1364Y491D02*
X1442Y491D01*
X5111Y491D02*
X5173Y491D01*
X44Y490D02*
X124Y490D01*
X1363Y490D02*
X1442Y490D01*
X5112Y490D02*
X5172Y490D01*
X44Y489D02*
X125Y489D01*
X1361Y489D02*
X1442Y489D01*
X5113Y489D02*
X5172Y489D01*
X44Y488D02*
X126Y488D01*
X1360Y488D02*
X1442Y488D01*
X5114Y488D02*
X5171Y488D01*
X44Y487D02*
X127Y487D01*
X1359Y487D02*
X1442Y487D01*
X5115Y487D02*
X5170Y487D01*
X44Y486D02*
X128Y486D01*
X1358Y486D02*
X1442Y486D01*
X5116Y486D02*
X5169Y486D01*
X44Y485D02*
X129Y485D01*
X1357Y485D02*
X1442Y485D01*
X5117Y485D02*
X5167Y485D01*
X44Y484D02*
X130Y484D01*
X1357Y484D02*
X1442Y484D01*
X5119Y484D02*
X5166Y484D01*
X44Y483D02*
X130Y483D01*
X1356Y483D02*
X1442Y483D01*
X5120Y483D02*
X5165Y483D01*
X44Y482D02*
X131Y482D01*
X1355Y482D02*
X1442Y482D01*
X5121Y482D02*
X5163Y482D01*
X44Y481D02*
X132Y481D01*
X1354Y481D02*
X1442Y481D01*
X5123Y481D02*
X5162Y481D01*
X44Y480D02*
X132Y480D01*
X1354Y480D02*
X1442Y480D01*
X5125Y480D02*
X5160Y480D01*
X44Y479D02*
X133Y479D01*
X1353Y479D02*
X1442Y479D01*
X5127Y479D02*
X5158Y479D01*
X44Y478D02*
X134Y478D01*
X1353Y478D02*
X1442Y478D01*
X5130Y478D02*
X5155Y478D01*
X44Y477D02*
X134Y477D01*
X1352Y477D02*
X1442Y477D01*
X5133Y477D02*
X5151Y477D01*
X44Y476D02*
X134Y476D01*
X1352Y476D02*
X1442Y476D01*
X5139Y476D02*
X5146Y476D01*
X44Y475D02*
X135Y475D01*
X1351Y475D02*
X1442Y475D01*
X44Y474D02*
X135Y474D01*
X1351Y474D02*
X1442Y474D01*
X44Y473D02*
X136Y473D01*
X1350Y473D02*
X1442Y473D01*
X44Y472D02*
X136Y472D01*
X1350Y472D02*
X1442Y472D01*
X44Y471D02*
X136Y471D01*
X1350Y471D02*
X1442Y471D01*
X44Y470D02*
X137Y470D01*
X1349Y470D02*
X1442Y470D01*
X44Y469D02*
X137Y469D01*
X1349Y469D02*
X1442Y469D01*
X44Y468D02*
X137Y468D01*
X1349Y468D02*
X1442Y468D01*
X44Y467D02*
X138Y467D01*
X1349Y467D02*
X1442Y467D01*
X44Y466D02*
X138Y466D01*
X1348Y466D02*
X1442Y466D01*
X44Y465D02*
X138Y465D01*
X1348Y465D02*
X1442Y465D01*
X44Y464D02*
X138Y464D01*
X1348Y464D02*
X1442Y464D01*
X44Y463D02*
X138Y463D01*
X1348Y463D02*
X1442Y463D01*
X44Y462D02*
X138Y462D01*
X1348Y462D02*
X1442Y462D01*
X44Y461D02*
X138Y461D01*
X1348Y461D02*
X1442Y461D01*
X44Y460D02*
X138Y460D01*
X1348Y460D02*
X1442Y460D01*
X44Y459D02*
X138Y459D01*
X1348Y459D02*
X1442Y459D01*
X44Y458D02*
X138Y458D01*
X1348Y458D02*
X1442Y458D01*
X44Y457D02*
X138Y457D01*
X1348Y457D02*
X1442Y457D01*
X44Y456D02*
X138Y456D01*
X1348Y456D02*
X1442Y456D01*
X44Y455D02*
X138Y455D01*
X1348Y455D02*
X1442Y455D01*
X5136Y455D02*
X5149Y455D01*
X44Y454D02*
X138Y454D01*
X1348Y454D02*
X1442Y454D01*
X5131Y454D02*
X5153Y454D01*
X44Y453D02*
X138Y453D01*
X1348Y453D02*
X1442Y453D01*
X5128Y453D02*
X5156Y453D01*
X44Y452D02*
X138Y452D01*
X1348Y452D02*
X1442Y452D01*
X5126Y452D02*
X5159Y452D01*
X44Y451D02*
X138Y451D01*
X1349Y451D02*
X1442Y451D01*
X5124Y451D02*
X5161Y451D01*
X44Y450D02*
X137Y450D01*
X1349Y450D02*
X1442Y450D01*
X5122Y450D02*
X5162Y450D01*
X44Y449D02*
X137Y449D01*
X1349Y449D02*
X1442Y449D01*
X5121Y449D02*
X5164Y449D01*
X44Y448D02*
X137Y448D01*
X1349Y448D02*
X1442Y448D01*
X5119Y448D02*
X5165Y448D01*
X44Y447D02*
X136Y447D01*
X1350Y447D02*
X1442Y447D01*
X5118Y447D02*
X5167Y447D01*
X44Y446D02*
X136Y446D01*
X1350Y446D02*
X1442Y446D01*
X5117Y446D02*
X5168Y446D01*
X44Y445D02*
X136Y445D01*
X1350Y445D02*
X1442Y445D01*
X5116Y445D02*
X5169Y445D01*
X44Y444D02*
X135Y444D01*
X1351Y444D02*
X1442Y444D01*
X5115Y444D02*
X5170Y444D01*
X44Y443D02*
X135Y443D01*
X1351Y443D02*
X1442Y443D01*
X5114Y443D02*
X5171Y443D01*
X44Y442D02*
X134Y442D01*
X1352Y442D02*
X1442Y442D01*
X5113Y442D02*
X5172Y442D01*
X44Y441D02*
X134Y441D01*
X1352Y441D02*
X1442Y441D01*
X5112Y441D02*
X5173Y441D01*
X44Y440D02*
X134Y440D01*
X1353Y440D02*
X1442Y440D01*
X5111Y440D02*
X5174Y440D01*
X44Y439D02*
X133Y439D01*
X1353Y439D02*
X1442Y439D01*
X5110Y439D02*
X5174Y439D01*
X44Y438D02*
X132Y438D01*
X1354Y438D02*
X1442Y438D01*
X5110Y438D02*
X5175Y438D01*
X44Y437D02*
X132Y437D01*
X1354Y437D02*
X1442Y437D01*
X5109Y437D02*
X5176Y437D01*
X44Y436D02*
X131Y436D01*
X1355Y436D02*
X1442Y436D01*
X5108Y436D02*
X5176Y436D01*
X44Y435D02*
X130Y435D01*
X1356Y435D02*
X1442Y435D01*
X5108Y435D02*
X5177Y435D01*
X44Y434D02*
X130Y434D01*
X1356Y434D02*
X1442Y434D01*
X5107Y434D02*
X5177Y434D01*
X44Y433D02*
X129Y433D01*
X1357Y433D02*
X1442Y433D01*
X5107Y433D02*
X5178Y433D01*
X44Y432D02*
X128Y432D01*
X1358Y432D02*
X1442Y432D01*
X5106Y432D02*
X5178Y432D01*
X44Y431D02*
X127Y431D01*
X1359Y431D02*
X1442Y431D01*
X5106Y431D02*
X5179Y431D01*
X44Y430D02*
X126Y430D01*
X1360Y430D02*
X1442Y430D01*
X5105Y430D02*
X5179Y430D01*
X44Y429D02*
X125Y429D01*
X1361Y429D02*
X1442Y429D01*
X5105Y429D02*
X5180Y429D01*
X44Y428D02*
X124Y428D01*
X1362Y428D02*
X1442Y428D01*
X5105Y428D02*
X5180Y428D01*
X44Y427D02*
X122Y427D01*
X1364Y427D02*
X1442Y427D01*
X5105Y427D02*
X5180Y427D01*
X44Y426D02*
X121Y426D01*
X1365Y426D02*
X1442Y426D01*
X5104Y426D02*
X5180Y426D01*
X44Y425D02*
X119Y425D01*
X1367Y425D02*
X1442Y425D01*
X5104Y425D02*
X5181Y425D01*
X44Y424D02*
X118Y424D01*
X1369Y424D02*
X1442Y424D01*
X5104Y424D02*
X5181Y424D01*
X44Y423D02*
X116Y423D01*
X1371Y423D02*
X1442Y423D01*
X5104Y423D02*
X5181Y423D01*
X44Y422D02*
X113Y422D01*
X1373Y422D02*
X1442Y422D01*
X5103Y422D02*
X5181Y422D01*
X44Y421D02*
X110Y421D01*
X1376Y421D02*
X1442Y421D01*
X5103Y421D02*
X5181Y421D01*
X44Y420D02*
X106Y420D01*
X1380Y420D02*
X1442Y420D01*
X5103Y420D02*
X5182Y420D01*
X5103Y419D02*
X5182Y419D01*
X5103Y418D02*
X5182Y418D01*
X5103Y417D02*
X5182Y417D01*
X5103Y416D02*
X5182Y416D01*
X5103Y415D02*
X5182Y415D01*
X5103Y414D02*
X5182Y414D01*
X5103Y413D02*
X5182Y413D01*
X5103Y412D02*
X5182Y412D01*
X5103Y411D02*
X5181Y411D01*
X5103Y410D02*
X5181Y410D01*
X5104Y409D02*
X5181Y409D01*
X5104Y408D02*
X5181Y408D01*
X5104Y407D02*
X5181Y407D01*
X5104Y406D02*
X5181Y406D01*
X5104Y405D02*
X5180Y405D01*
X5105Y404D02*
X5180Y404D01*
X5105Y403D02*
X5180Y403D01*
X5105Y402D02*
X5179Y402D01*
X5106Y401D02*
X5179Y401D01*
X5106Y400D02*
X5179Y400D01*
X5107Y399D02*
X5178Y399D01*
X5107Y398D02*
X5178Y398D01*
X5108Y397D02*
X5177Y397D01*
X5108Y396D02*
X5177Y396D01*
X5109Y395D02*
X5176Y395D01*
X5109Y394D02*
X5175Y394D01*
X5110Y393D02*
X5175Y393D01*
X45Y392D02*
X100Y392D01*
X1386Y392D02*
X1442Y392D01*
X5111Y392D02*
X5174Y392D01*
X44Y391D02*
X108Y391D01*
X1378Y391D02*
X1442Y391D01*
X5112Y391D02*
X5173Y391D01*
X44Y390D02*
X111Y390D01*
X1375Y390D02*
X1442Y390D01*
X5112Y390D02*
X5172Y390D01*
X44Y389D02*
X114Y389D01*
X1372Y389D02*
X1442Y389D01*
X5113Y389D02*
X5171Y389D01*
X44Y388D02*
X116Y388D01*
X1370Y388D02*
X1442Y388D01*
X5114Y388D02*
X5171Y388D01*
X44Y387D02*
X118Y387D01*
X1368Y387D02*
X1442Y387D01*
X5115Y387D02*
X5170Y387D01*
X44Y386D02*
X120Y386D01*
X1366Y386D02*
X1442Y386D01*
X5116Y386D02*
X5168Y386D01*
X44Y385D02*
X121Y385D01*
X1365Y385D02*
X1442Y385D01*
X5117Y385D02*
X5167Y385D01*
X44Y384D02*
X123Y384D01*
X1363Y384D02*
X1442Y384D01*
X5119Y384D02*
X5166Y384D01*
X44Y383D02*
X124Y383D01*
X1362Y383D02*
X1442Y383D01*
X5120Y383D02*
X5165Y383D01*
X44Y382D02*
X125Y382D01*
X1361Y382D02*
X1442Y382D01*
X5122Y382D02*
X5163Y382D01*
X44Y381D02*
X126Y381D01*
X1360Y381D02*
X1442Y381D01*
X5123Y381D02*
X5161Y381D01*
X44Y380D02*
X127Y380D01*
X1359Y380D02*
X1442Y380D01*
X5125Y380D02*
X5160Y380D01*
X44Y379D02*
X128Y379D01*
X1358Y379D02*
X1442Y379D01*
X5127Y379D02*
X5158Y379D01*
X44Y378D02*
X129Y378D01*
X1357Y378D02*
X1442Y378D01*
X5130Y378D02*
X5155Y378D01*
X44Y377D02*
X130Y377D01*
X1356Y377D02*
X1442Y377D01*
X5133Y377D02*
X5151Y377D01*
X44Y376D02*
X131Y376D01*
X1356Y376D02*
X1442Y376D01*
X5139Y376D02*
X5146Y376D01*
X44Y375D02*
X131Y375D01*
X1355Y375D02*
X1442Y375D01*
X44Y374D02*
X132Y374D01*
X1354Y374D02*
X1442Y374D01*
X44Y373D02*
X133Y373D01*
X1354Y373D02*
X1442Y373D01*
X44Y372D02*
X133Y372D01*
X1353Y372D02*
X1442Y372D01*
X44Y371D02*
X134Y371D01*
X1352Y371D02*
X1442Y371D01*
X44Y370D02*
X134Y370D01*
X1352Y370D02*
X1442Y370D01*
X44Y369D02*
X135Y369D01*
X1352Y369D02*
X1442Y369D01*
X44Y368D02*
X135Y368D01*
X1351Y368D02*
X1442Y368D01*
X44Y367D02*
X135Y367D01*
X1351Y367D02*
X1442Y367D01*
X44Y366D02*
X136Y366D01*
X1350Y366D02*
X1442Y366D01*
X44Y365D02*
X136Y365D01*
X1350Y365D02*
X1442Y365D01*
X44Y364D02*
X137Y364D01*
X1350Y364D02*
X1442Y364D01*
X44Y363D02*
X137Y363D01*
X1349Y363D02*
X1442Y363D01*
X44Y362D02*
X137Y362D01*
X1349Y362D02*
X1442Y362D01*
X44Y361D02*
X137Y361D01*
X1349Y361D02*
X1442Y361D01*
X44Y360D02*
X138Y360D01*
X1349Y360D02*
X1442Y360D01*
X44Y359D02*
X138Y359D01*
X1348Y359D02*
X1442Y359D01*
X44Y358D02*
X138Y358D01*
X1348Y358D02*
X1442Y358D01*
X44Y357D02*
X138Y357D01*
X1348Y357D02*
X1442Y357D01*
X44Y356D02*
X139Y356D01*
X1348Y356D02*
X1442Y356D01*
X44Y355D02*
X139Y355D01*
X1348Y355D02*
X1442Y355D01*
X44Y354D02*
X139Y354D01*
X1348Y354D02*
X1442Y354D01*
X44Y353D02*
X139Y353D01*
X1348Y353D02*
X1442Y353D01*
X44Y352D02*
X138Y352D01*
X1348Y352D02*
X1442Y352D01*
X44Y351D02*
X138Y351D01*
X1348Y351D02*
X1442Y351D01*
X44Y350D02*
X138Y350D01*
X1348Y350D02*
X1442Y350D01*
X44Y349D02*
X138Y349D01*
X1348Y349D02*
X1442Y349D01*
X44Y348D02*
X138Y348D01*
X1348Y348D02*
X1442Y348D01*
X44Y347D02*
X138Y347D01*
X1348Y347D02*
X1442Y347D01*
X44Y346D02*
X138Y346D01*
X1348Y346D02*
X1442Y346D01*
X44Y345D02*
X138Y345D01*
X1349Y345D02*
X1442Y345D01*
X44Y344D02*
X137Y344D01*
X1349Y344D02*
X1442Y344D01*
X44Y343D02*
X137Y343D01*
X1349Y343D02*
X1442Y343D01*
X44Y342D02*
X137Y342D01*
X1349Y342D02*
X1442Y342D01*
X44Y341D02*
X137Y341D01*
X1350Y341D02*
X1442Y341D01*
X44Y340D02*
X136Y340D01*
X1350Y340D02*
X1442Y340D01*
X44Y339D02*
X136Y339D01*
X1350Y339D02*
X1442Y339D01*
X44Y338D02*
X136Y338D01*
X1351Y338D02*
X1442Y338D01*
X44Y337D02*
X135Y337D01*
X1351Y337D02*
X1442Y337D01*
X44Y336D02*
X135Y336D01*
X1351Y336D02*
X1442Y336D01*
X44Y335D02*
X134Y335D01*
X1352Y335D02*
X1442Y335D01*
X44Y334D02*
X134Y334D01*
X1352Y334D02*
X1442Y334D01*
X44Y333D02*
X133Y333D01*
X1353Y333D02*
X1442Y333D01*
X44Y332D02*
X133Y332D01*
X1353Y332D02*
X1442Y332D01*
X44Y331D02*
X132Y331D01*
X1354Y331D02*
X1442Y331D01*
X44Y330D02*
X132Y330D01*
X1355Y330D02*
X1442Y330D01*
X44Y329D02*
X131Y329D01*
X1355Y329D02*
X1442Y329D01*
X44Y328D02*
X130Y328D01*
X1356Y328D02*
X1442Y328D01*
X44Y327D02*
X129Y327D01*
X1357Y327D02*
X1442Y327D01*
X44Y326D02*
X128Y326D01*
X1358Y326D02*
X1442Y326D01*
X44Y325D02*
X128Y325D01*
X1359Y325D02*
X1442Y325D01*
X44Y324D02*
X127Y324D01*
X1359Y324D02*
X1442Y324D01*
X44Y323D02*
X126Y323D01*
X1361Y323D02*
X1442Y323D01*
X44Y322D02*
X124Y322D01*
X1362Y322D02*
X1442Y322D01*
X44Y321D02*
X123Y321D01*
X1363Y321D02*
X1442Y321D01*
X44Y320D02*
X122Y320D01*
X1364Y320D02*
X1442Y320D01*
X44Y319D02*
X120Y319D01*
X1366Y319D02*
X1442Y319D01*
X44Y318D02*
X119Y318D01*
X1367Y318D02*
X1442Y318D01*
X44Y317D02*
X117Y317D01*
X1369Y317D02*
X1442Y317D01*
X44Y316D02*
X115Y316D01*
X1371Y316D02*
X1442Y316D01*
X44Y315D02*
X112Y315D01*
X1374Y315D02*
X1442Y315D01*
X44Y314D02*
X109Y314D01*
X1377Y314D02*
X1442Y314D01*
X44Y313D02*
X104Y313D01*
X1382Y313D02*
X1442Y313D01*
D02*
G04 End of Mask0*
M02*