; NON-PLATED HOLES START AT T1
; THROUGH (PLATED) HOLES START AT T100
M48
INCH
T100C0.036000
T101C0.024960
T102C0.035000
T103C0.030000
%
T100
X043923Y008155
X045923Y008155
X041923Y008155
X037923Y002155
X044923Y008155
X042923Y008155
X033923Y008155
X039923Y008155
X041923Y002155
X042923Y002155
X040923Y008155
X046923Y008155
X034923Y008155
X036923Y008155
X032923Y008155
X038923Y008155
X037923Y008155
X038923Y002155
X034923Y002155
X036923Y002155
X044923Y002155
X039923Y002155
X035923Y008155
X033923Y002155
X032923Y002155
X040923Y002155
X043923Y002155
X045923Y002155
X046923Y002155
X035923Y002155
T101
X013923Y005655
X000930Y005654
X013923Y004595
X013923Y003520
X000930Y004587
X000930Y003520
T102
X018728Y005655
X018728Y004655
X025982Y004155
X025982Y005926
X023423Y005926
X023423Y004155
T103
X051423Y004155
X051423Y005155
T00
M30
