; NON-PLATED HOLES START AT T1
; THROUGH (PLATED) HOLES START AT T100
M48
INCH
T100C0.015748
T101C0.036000
T102C0.024960
T103C0.035000
T104C0.030000
%
T100
X032760Y007457
X028200Y004337
T101
X045923Y002633
X033923Y002633
X042923Y002633
X041923Y002633
X039923Y002633
X035923Y008633
X033923Y008633
X039923Y008633
X037923Y008633
X040923Y002633
X043923Y002633
X037923Y002633
X036923Y008633
X041923Y008633
X046923Y008633
X032923Y008633
X038923Y008633
X046923Y002633
X036923Y002633
X043923Y008633
X044923Y008633
X034923Y002633
X040923Y008633
X032923Y002633
X045923Y008633
X042923Y008633
X044923Y002633
X038923Y002633
X034923Y008633
X035923Y002633
T102
X013923Y003633
X013923Y008133
X013923Y005998
X000930Y005999
X013923Y001498
X000930Y001499
X000930Y003632
X013923Y007073
X000930Y008132
X000930Y002566
X000930Y007066
X013923Y002573
T103
X018728Y006133
X025982Y004633
X025982Y006405
X023423Y006405
X018728Y005133
X023423Y004633
T104
X051423Y004633
X051423Y005633
T00
M30
