G04 MADE WITH FRITZING*
G04 WWW.FRITZING.ORG*
G04 DOUBLE SIDED*
G04 HOLES PLATED*
G04 CONTOUR ON CENTER OF CONTOUR VECTOR*
%ASAXBY*%
%FSLAX23Y23*%
%MOIN*%
%OFA0B0*%
%SFA1.0B1.0*%
%ADD10C,0.075000*%
%ADD11C,0.070000*%
%ADD12C,0.045440*%
%ADD13C,0.039370*%
%ADD14R,0.070000X0.069972*%
%ADD15C,0.024000*%
%ADD16R,0.001000X0.001000*%
%LNCOPPER0*%
G90*
G70*
G54D10*
X2598Y463D03*
X2342Y463D03*
X2598Y641D03*
X2342Y641D03*
G54D11*
X3292Y263D03*
X3392Y263D03*
X3492Y263D03*
X3592Y263D03*
X3692Y263D03*
X3792Y263D03*
X3892Y263D03*
X3992Y263D03*
X4092Y263D03*
X4192Y263D03*
X4292Y263D03*
X4392Y263D03*
X4492Y263D03*
X4592Y263D03*
X4692Y263D03*
X3292Y863D03*
X3392Y863D03*
X3492Y863D03*
X3592Y863D03*
X3692Y863D03*
X3792Y863D03*
X3892Y863D03*
X3992Y863D03*
X4092Y863D03*
X4192Y863D03*
X4292Y863D03*
X4392Y863D03*
X4492Y863D03*
X4592Y863D03*
X4692Y863D03*
G54D12*
X93Y363D03*
X93Y257D03*
X93Y150D03*
X1392Y363D03*
X1392Y257D03*
X1392Y150D03*
X93Y813D03*
X93Y707D03*
X93Y600D03*
X1392Y813D03*
X1392Y707D03*
X1392Y600D03*
G54D10*
X1873Y613D03*
X1873Y513D03*
G54D11*
X5142Y563D03*
X5142Y463D03*
G54D13*
X2820Y434D03*
X3276Y746D03*
G54D14*
X3292Y263D03*
G54D15*
X1404Y810D02*
X1822Y687D01*
D02*
X1822Y687D02*
X1942Y687D01*
D02*
X2191Y463D02*
X2325Y463D01*
D02*
X2040Y463D02*
X2191Y463D01*
D02*
X1942Y687D02*
X2040Y463D01*
D02*
X1404Y596D02*
X2040Y415D01*
D02*
X2191Y415D02*
X2662Y399D01*
D02*
X2040Y415D02*
X2191Y415D01*
D02*
X2662Y399D02*
X2854Y567D01*
D02*
X2854Y567D02*
X2542Y567D01*
D02*
X2542Y567D02*
X2542Y735D01*
D02*
X2542Y735D02*
X2734Y927D01*
D02*
X2734Y927D02*
X3334Y927D01*
D02*
X3334Y927D02*
X3380Y877D01*
D02*
X1856Y617D02*
X1405Y705D01*
D02*
X1388Y375D02*
X1332Y530D01*
X1332Y530D02*
X1332Y770D01*
X1332Y770D02*
X1404Y770D01*
X1404Y770D02*
X1404Y794D01*
X1404Y794D02*
X1399Y803D01*
D02*
X3279Y851D02*
X2826Y439D01*
D02*
X3282Y751D02*
X3372Y842D01*
X3372Y842D02*
X3380Y850D01*
G54D16*
X49Y847D02*
X107Y847D01*
X1380Y847D02*
X1437Y847D01*
X49Y846D02*
X110Y846D01*
X1376Y846D02*
X1437Y846D01*
X49Y845D02*
X113Y845D01*
X1374Y845D02*
X1437Y845D01*
X49Y844D02*
X115Y844D01*
X1372Y844D02*
X1437Y844D01*
X49Y843D02*
X117Y843D01*
X1370Y843D02*
X1437Y843D01*
X49Y842D02*
X118Y842D01*
X1368Y842D02*
X1437Y842D01*
X49Y841D02*
X120Y841D01*
X1367Y841D02*
X1437Y841D01*
X49Y840D02*
X121Y840D01*
X1366Y840D02*
X1437Y840D01*
X49Y839D02*
X122Y839D01*
X1364Y839D02*
X1437Y839D01*
X49Y838D02*
X123Y838D01*
X1363Y838D02*
X1437Y838D01*
X49Y837D02*
X124Y837D01*
X1362Y837D02*
X1437Y837D01*
X49Y836D02*
X125Y836D01*
X1361Y836D02*
X1437Y836D01*
X49Y835D02*
X126Y835D01*
X1361Y835D02*
X1437Y835D01*
X49Y834D02*
X126Y834D01*
X1360Y834D02*
X1437Y834D01*
X49Y833D02*
X127Y833D01*
X1359Y833D02*
X1437Y833D01*
X49Y832D02*
X128Y832D01*
X1358Y832D02*
X1437Y832D01*
X49Y831D02*
X128Y831D01*
X1358Y831D02*
X1437Y831D01*
X49Y830D02*
X129Y830D01*
X1357Y830D02*
X1437Y830D01*
X49Y829D02*
X130Y829D01*
X1357Y829D02*
X1437Y829D01*
X49Y828D02*
X130Y828D01*
X1356Y828D02*
X1437Y828D01*
X49Y827D02*
X131Y827D01*
X1356Y827D02*
X1437Y827D01*
X49Y826D02*
X131Y826D01*
X1355Y826D02*
X1437Y826D01*
X49Y825D02*
X131Y825D01*
X1355Y825D02*
X1437Y825D01*
X49Y824D02*
X132Y824D01*
X1355Y824D02*
X1437Y824D01*
X49Y823D02*
X132Y823D01*
X1354Y823D02*
X1437Y823D01*
X49Y822D02*
X132Y822D01*
X1354Y822D02*
X1437Y822D01*
X49Y821D02*
X132Y821D01*
X1354Y821D02*
X1437Y821D01*
X49Y820D02*
X133Y820D01*
X1354Y820D02*
X1437Y820D01*
X49Y819D02*
X133Y819D01*
X1353Y819D02*
X1437Y819D01*
X49Y818D02*
X133Y818D01*
X1353Y818D02*
X1437Y818D01*
X49Y817D02*
X133Y817D01*
X1353Y817D02*
X1437Y817D01*
X49Y816D02*
X133Y816D01*
X1353Y816D02*
X1437Y816D01*
X49Y815D02*
X133Y815D01*
X1353Y815D02*
X1437Y815D01*
X49Y814D02*
X133Y814D01*
X1353Y814D02*
X1437Y814D01*
X49Y813D02*
X133Y813D01*
X1353Y813D02*
X1437Y813D01*
X49Y812D02*
X133Y812D01*
X1353Y812D02*
X1437Y812D01*
X49Y811D02*
X133Y811D01*
X1353Y811D02*
X1437Y811D01*
X49Y810D02*
X133Y810D01*
X1353Y810D02*
X1437Y810D01*
X49Y809D02*
X133Y809D01*
X1353Y809D02*
X1437Y809D01*
X49Y808D02*
X133Y808D01*
X1353Y808D02*
X1437Y808D01*
X49Y807D02*
X133Y807D01*
X1353Y807D02*
X1437Y807D01*
X49Y806D02*
X133Y806D01*
X1354Y806D02*
X1437Y806D01*
X49Y805D02*
X132Y805D01*
X1354Y805D02*
X1437Y805D01*
X49Y804D02*
X132Y804D01*
X1354Y804D02*
X1437Y804D01*
X49Y803D02*
X132Y803D01*
X1354Y803D02*
X1437Y803D01*
X49Y802D02*
X132Y802D01*
X1355Y802D02*
X1437Y802D01*
X49Y801D02*
X131Y801D01*
X1355Y801D02*
X1437Y801D01*
X49Y800D02*
X131Y800D01*
X1355Y800D02*
X1437Y800D01*
X49Y799D02*
X130Y799D01*
X1356Y799D02*
X1437Y799D01*
X49Y798D02*
X130Y798D01*
X1356Y798D02*
X1437Y798D01*
X49Y797D02*
X129Y797D01*
X1357Y797D02*
X1437Y797D01*
X49Y796D02*
X129Y796D01*
X1357Y796D02*
X1437Y796D01*
X49Y795D02*
X128Y795D01*
X1358Y795D02*
X1437Y795D01*
X49Y794D02*
X128Y794D01*
X1359Y794D02*
X1437Y794D01*
X49Y793D02*
X127Y793D01*
X1359Y793D02*
X1437Y793D01*
X49Y792D02*
X126Y792D01*
X1360Y792D02*
X1437Y792D01*
X49Y791D02*
X125Y791D01*
X1361Y791D02*
X1437Y791D01*
X49Y790D02*
X125Y790D01*
X1362Y790D02*
X1437Y790D01*
X49Y789D02*
X124Y789D01*
X1363Y789D02*
X1437Y789D01*
X49Y788D02*
X123Y788D01*
X1364Y788D02*
X1437Y788D01*
X49Y787D02*
X122Y787D01*
X1365Y787D02*
X1437Y787D01*
X49Y786D02*
X120Y786D01*
X1366Y786D02*
X1437Y786D01*
X49Y785D02*
X119Y785D01*
X1367Y785D02*
X1437Y785D01*
X49Y784D02*
X118Y784D01*
X1369Y784D02*
X1437Y784D01*
X49Y783D02*
X116Y783D01*
X1370Y783D02*
X1437Y783D01*
X49Y782D02*
X114Y782D01*
X1372Y782D02*
X1437Y782D01*
X49Y781D02*
X112Y781D01*
X1374Y781D02*
X1437Y781D01*
X49Y780D02*
X109Y780D01*
X1377Y780D02*
X1437Y780D01*
X49Y779D02*
X105Y779D01*
X1381Y779D02*
X1437Y779D01*
X49Y741D02*
X103Y741D01*
X1383Y741D02*
X1437Y741D01*
X49Y740D02*
X108Y740D01*
X1378Y740D02*
X1437Y740D01*
X49Y739D02*
X111Y739D01*
X1375Y739D02*
X1437Y739D01*
X49Y738D02*
X114Y738D01*
X1373Y738D02*
X1437Y738D01*
X49Y737D02*
X116Y737D01*
X1371Y737D02*
X1437Y737D01*
X49Y736D02*
X117Y736D01*
X1369Y736D02*
X1437Y736D01*
X49Y735D02*
X119Y735D01*
X1368Y735D02*
X1437Y735D01*
X49Y734D02*
X120Y734D01*
X1366Y734D02*
X1437Y734D01*
X49Y733D02*
X121Y733D01*
X1365Y733D02*
X1437Y733D01*
X49Y732D02*
X122Y732D01*
X1364Y732D02*
X1437Y732D01*
X49Y731D02*
X123Y731D01*
X1363Y731D02*
X1437Y731D01*
X49Y730D02*
X124Y730D01*
X1362Y730D02*
X1437Y730D01*
X49Y729D02*
X125Y729D01*
X1361Y729D02*
X1437Y729D01*
X49Y728D02*
X126Y728D01*
X1360Y728D02*
X1437Y728D01*
X49Y727D02*
X127Y727D01*
X1360Y727D02*
X1437Y727D01*
X49Y726D02*
X127Y726D01*
X1359Y726D02*
X1437Y726D01*
X49Y725D02*
X128Y725D01*
X1358Y725D02*
X1437Y725D01*
X49Y724D02*
X129Y724D01*
X1358Y724D02*
X1437Y724D01*
X49Y723D02*
X129Y723D01*
X1357Y723D02*
X1437Y723D01*
X49Y722D02*
X130Y722D01*
X1357Y722D02*
X1437Y722D01*
X49Y721D02*
X130Y721D01*
X1356Y721D02*
X1437Y721D01*
X49Y720D02*
X131Y720D01*
X1356Y720D02*
X1437Y720D01*
X49Y719D02*
X131Y719D01*
X1355Y719D02*
X1437Y719D01*
X49Y718D02*
X131Y718D01*
X1355Y718D02*
X1437Y718D01*
X49Y717D02*
X132Y717D01*
X1355Y717D02*
X1437Y717D01*
X49Y716D02*
X132Y716D01*
X1354Y716D02*
X1437Y716D01*
X49Y715D02*
X132Y715D01*
X1354Y715D02*
X1437Y715D01*
X49Y714D02*
X133Y714D01*
X1354Y714D02*
X1437Y714D01*
X49Y713D02*
X133Y713D01*
X1354Y713D02*
X1437Y713D01*
X49Y712D02*
X133Y712D01*
X1353Y712D02*
X1437Y712D01*
X49Y711D02*
X133Y711D01*
X1353Y711D02*
X1437Y711D01*
X49Y710D02*
X133Y710D01*
X1353Y710D02*
X1437Y710D01*
X49Y709D02*
X133Y709D01*
X1353Y709D02*
X1437Y709D01*
X49Y708D02*
X133Y708D01*
X1353Y708D02*
X1437Y708D01*
X49Y707D02*
X133Y707D01*
X1353Y707D02*
X1437Y707D01*
X49Y706D02*
X133Y706D01*
X1353Y706D02*
X1437Y706D01*
X49Y705D02*
X133Y705D01*
X1353Y705D02*
X1437Y705D01*
X49Y704D02*
X133Y704D01*
X1353Y704D02*
X1437Y704D01*
X49Y703D02*
X133Y703D01*
X1353Y703D02*
X1437Y703D01*
X49Y702D02*
X133Y702D01*
X1353Y702D02*
X1437Y702D01*
X49Y701D02*
X133Y701D01*
X1353Y701D02*
X1437Y701D01*
X49Y700D02*
X133Y700D01*
X1354Y700D02*
X1437Y700D01*
X49Y699D02*
X133Y699D01*
X1354Y699D02*
X1437Y699D01*
X49Y698D02*
X132Y698D01*
X1354Y698D02*
X1437Y698D01*
X49Y697D02*
X132Y697D01*
X1354Y697D02*
X1437Y697D01*
X49Y696D02*
X132Y696D01*
X1355Y696D02*
X1437Y696D01*
X49Y695D02*
X131Y695D01*
X1355Y695D02*
X1437Y695D01*
X49Y694D02*
X131Y694D01*
X1355Y694D02*
X1437Y694D01*
X49Y693D02*
X131Y693D01*
X1356Y693D02*
X1437Y693D01*
X49Y692D02*
X130Y692D01*
X1356Y692D02*
X1437Y692D01*
X49Y691D02*
X130Y691D01*
X1357Y691D02*
X1437Y691D01*
X49Y690D02*
X129Y690D01*
X1357Y690D02*
X1437Y690D01*
X49Y689D02*
X129Y689D01*
X1358Y689D02*
X1437Y689D01*
X49Y688D02*
X128Y688D01*
X1358Y688D02*
X1437Y688D01*
X49Y687D02*
X127Y687D01*
X1359Y687D02*
X1437Y687D01*
X49Y686D02*
X127Y686D01*
X1360Y686D02*
X1437Y686D01*
X49Y685D02*
X126Y685D01*
X1360Y685D02*
X1437Y685D01*
X49Y684D02*
X125Y684D01*
X1361Y684D02*
X1437Y684D01*
X49Y683D02*
X124Y683D01*
X1362Y683D02*
X1437Y683D01*
X49Y682D02*
X123Y682D01*
X1363Y682D02*
X1437Y682D01*
X49Y681D02*
X122Y681D01*
X1364Y681D02*
X1437Y681D01*
X49Y680D02*
X121Y680D01*
X1365Y680D02*
X1437Y680D01*
X49Y679D02*
X120Y679D01*
X1366Y679D02*
X1437Y679D01*
X49Y678D02*
X119Y678D01*
X1368Y678D02*
X1437Y678D01*
X49Y677D02*
X117Y677D01*
X1369Y677D02*
X1437Y677D01*
X49Y676D02*
X115Y676D01*
X1371Y676D02*
X1437Y676D01*
X49Y675D02*
X113Y675D01*
X1373Y675D02*
X1437Y675D01*
X49Y674D02*
X111Y674D01*
X1375Y674D02*
X1437Y674D01*
X49Y673D02*
X108Y673D01*
X1378Y673D02*
X1437Y673D01*
X49Y672D02*
X101Y672D01*
X1385Y672D02*
X1437Y672D01*
X49Y634D02*
X106Y634D01*
X1380Y634D02*
X1437Y634D01*
X49Y633D02*
X110Y633D01*
X1377Y633D02*
X1437Y633D01*
X49Y632D02*
X112Y632D01*
X1374Y632D02*
X1437Y632D01*
X49Y631D02*
X114Y631D01*
X1372Y631D02*
X1437Y631D01*
X49Y630D02*
X116Y630D01*
X1370Y630D02*
X1437Y630D01*
X49Y629D02*
X118Y629D01*
X1368Y629D02*
X1437Y629D01*
X49Y628D02*
X119Y628D01*
X1367Y628D02*
X1437Y628D01*
X49Y627D02*
X121Y627D01*
X1366Y627D02*
X1437Y627D01*
X49Y626D02*
X122Y626D01*
X1365Y626D02*
X1437Y626D01*
X49Y625D02*
X123Y625D01*
X1363Y625D02*
X1437Y625D01*
X49Y624D02*
X124Y624D01*
X1362Y624D02*
X1437Y624D01*
X49Y623D02*
X125Y623D01*
X1362Y623D02*
X1437Y623D01*
X49Y622D02*
X126Y622D01*
X1361Y622D02*
X1437Y622D01*
X49Y621D02*
X126Y621D01*
X1360Y621D02*
X1437Y621D01*
X49Y620D02*
X127Y620D01*
X1359Y620D02*
X1437Y620D01*
X49Y619D02*
X128Y619D01*
X1359Y619D02*
X1437Y619D01*
X49Y618D02*
X128Y618D01*
X1358Y618D02*
X1437Y618D01*
X49Y617D02*
X129Y617D01*
X1357Y617D02*
X1437Y617D01*
X49Y616D02*
X129Y616D01*
X1357Y616D02*
X1437Y616D01*
X49Y615D02*
X130Y615D01*
X1356Y615D02*
X1437Y615D01*
X49Y614D02*
X130Y614D01*
X1356Y614D02*
X1437Y614D01*
X49Y613D02*
X131Y613D01*
X1355Y613D02*
X1437Y613D01*
X49Y612D02*
X131Y612D01*
X1355Y612D02*
X1437Y612D01*
X49Y611D02*
X132Y611D01*
X1355Y611D02*
X1437Y611D01*
X49Y610D02*
X132Y610D01*
X1354Y610D02*
X1437Y610D01*
X49Y609D02*
X132Y609D01*
X1354Y609D02*
X1437Y609D01*
X49Y608D02*
X132Y608D01*
X1354Y608D02*
X1437Y608D01*
X49Y607D02*
X133Y607D01*
X1354Y607D02*
X1437Y607D01*
X49Y606D02*
X133Y606D01*
X1353Y606D02*
X1437Y606D01*
X49Y605D02*
X133Y605D01*
X1353Y605D02*
X1437Y605D01*
X49Y604D02*
X133Y604D01*
X1353Y604D02*
X1437Y604D01*
X49Y603D02*
X133Y603D01*
X1353Y603D02*
X1437Y603D01*
X49Y602D02*
X133Y602D01*
X1353Y602D02*
X1437Y602D01*
X49Y601D02*
X134Y601D01*
X1353Y601D02*
X1437Y601D01*
X49Y600D02*
X134Y600D01*
X1353Y600D02*
X1437Y600D01*
X49Y599D02*
X133Y599D01*
X1353Y599D02*
X1437Y599D01*
X49Y598D02*
X133Y598D01*
X1353Y598D02*
X1437Y598D01*
X5139Y598D02*
X5147Y598D01*
X49Y597D02*
X133Y597D01*
X1353Y597D02*
X1437Y597D01*
X5134Y597D02*
X5151Y597D01*
X49Y596D02*
X133Y596D01*
X1353Y596D02*
X1437Y596D01*
X5131Y596D02*
X5154Y596D01*
X49Y595D02*
X133Y595D01*
X1353Y595D02*
X1437Y595D01*
X5129Y595D02*
X5157Y595D01*
X49Y594D02*
X133Y594D01*
X1353Y594D02*
X1437Y594D01*
X5127Y594D02*
X5159Y594D01*
X49Y593D02*
X133Y593D01*
X1354Y593D02*
X1437Y593D01*
X5125Y593D02*
X5161Y593D01*
X49Y592D02*
X132Y592D01*
X1354Y592D02*
X1437Y592D01*
X5123Y592D02*
X5162Y592D01*
X49Y591D02*
X132Y591D01*
X1354Y591D02*
X1437Y591D01*
X5122Y591D02*
X5164Y591D01*
X49Y590D02*
X132Y590D01*
X1354Y590D02*
X1437Y590D01*
X5121Y590D02*
X5165Y590D01*
X49Y589D02*
X132Y589D01*
X1355Y589D02*
X1437Y589D01*
X5119Y589D02*
X5166Y589D01*
X49Y588D02*
X131Y588D01*
X1355Y588D02*
X1437Y588D01*
X5118Y588D02*
X5167Y588D01*
X49Y587D02*
X131Y587D01*
X1355Y587D02*
X1437Y587D01*
X5118Y587D02*
X5168Y587D01*
X49Y586D02*
X130Y586D01*
X1356Y586D02*
X1437Y586D01*
X5117Y586D02*
X5169Y586D01*
X49Y585D02*
X130Y585D01*
X1356Y585D02*
X1437Y585D01*
X5116Y585D02*
X5170Y585D01*
X49Y584D02*
X130Y584D01*
X1357Y584D02*
X1437Y584D01*
X5115Y584D02*
X5170Y584D01*
X49Y583D02*
X129Y583D01*
X1357Y583D02*
X1437Y583D01*
X5114Y583D02*
X5171Y583D01*
X49Y582D02*
X128Y582D01*
X1358Y582D02*
X1437Y582D01*
X5114Y582D02*
X5172Y582D01*
X49Y581D02*
X128Y581D01*
X1359Y581D02*
X1437Y581D01*
X5113Y581D02*
X5172Y581D01*
X49Y580D02*
X127Y580D01*
X1359Y580D02*
X1437Y580D01*
X5113Y580D02*
X5173Y580D01*
X49Y579D02*
X126Y579D01*
X1360Y579D02*
X1437Y579D01*
X5112Y579D02*
X5173Y579D01*
X49Y578D02*
X126Y578D01*
X1361Y578D02*
X1437Y578D01*
X5112Y578D02*
X5138Y578D01*
X5147Y578D02*
X5174Y578D01*
X49Y577D02*
X125Y577D01*
X1362Y577D02*
X1437Y577D01*
X5111Y577D02*
X5136Y577D01*
X5150Y577D02*
X5174Y577D01*
X49Y576D02*
X124Y576D01*
X1362Y576D02*
X1437Y576D01*
X5111Y576D02*
X5134Y576D01*
X5152Y576D02*
X5175Y576D01*
X49Y575D02*
X123Y575D01*
X1363Y575D02*
X1437Y575D01*
X5110Y575D02*
X5133Y575D01*
X5153Y575D02*
X5175Y575D01*
X49Y574D02*
X122Y574D01*
X1364Y574D02*
X1437Y574D01*
X5110Y574D02*
X5132Y574D01*
X5154Y574D02*
X5175Y574D01*
X49Y573D02*
X121Y573D01*
X1366Y573D02*
X1437Y573D01*
X5110Y573D02*
X5131Y573D01*
X5155Y573D02*
X5176Y573D01*
X49Y572D02*
X119Y572D01*
X1367Y572D02*
X1437Y572D01*
X5110Y572D02*
X5130Y572D01*
X5156Y572D02*
X5176Y572D01*
X49Y571D02*
X118Y571D01*
X1368Y571D02*
X1437Y571D01*
X5109Y571D02*
X5129Y571D01*
X5156Y571D02*
X5176Y571D01*
X49Y570D02*
X116Y570D01*
X1370Y570D02*
X1437Y570D01*
X5109Y570D02*
X5129Y570D01*
X5157Y570D02*
X5177Y570D01*
X49Y569D02*
X115Y569D01*
X1372Y569D02*
X1437Y569D01*
X5109Y569D02*
X5128Y569D01*
X5157Y569D02*
X5177Y569D01*
X49Y568D02*
X112Y568D01*
X1374Y568D02*
X1437Y568D01*
X5109Y568D02*
X5128Y568D01*
X5158Y568D02*
X5177Y568D01*
X49Y567D02*
X110Y567D01*
X1376Y567D02*
X1437Y567D01*
X5109Y567D02*
X5128Y567D01*
X5158Y567D02*
X5177Y567D01*
X49Y566D02*
X106Y566D01*
X1380Y566D02*
X1437Y566D01*
X5108Y566D02*
X5127Y566D01*
X5158Y566D02*
X5177Y566D01*
X5108Y565D02*
X5127Y565D01*
X5158Y565D02*
X5177Y565D01*
X5108Y564D02*
X5127Y564D01*
X5158Y564D02*
X5177Y564D01*
X5108Y563D02*
X5127Y563D01*
X5158Y563D02*
X5177Y563D01*
X5108Y562D02*
X5127Y562D01*
X5158Y562D02*
X5177Y562D01*
X5108Y561D02*
X5127Y561D01*
X5158Y561D02*
X5177Y561D01*
X5109Y560D02*
X5128Y560D01*
X5158Y560D02*
X5177Y560D01*
X5109Y559D02*
X5128Y559D01*
X5158Y559D02*
X5177Y559D01*
X5109Y558D02*
X5128Y558D01*
X5157Y558D02*
X5177Y558D01*
X5109Y557D02*
X5129Y557D01*
X5157Y557D02*
X5177Y557D01*
X5109Y556D02*
X5129Y556D01*
X5156Y556D02*
X5176Y556D01*
X5109Y555D02*
X5130Y555D01*
X5156Y555D02*
X5176Y555D01*
X5110Y554D02*
X5131Y554D01*
X5155Y554D02*
X5176Y554D01*
X5110Y553D02*
X5132Y553D01*
X5154Y553D02*
X5176Y553D01*
X5110Y552D02*
X5133Y552D01*
X5153Y552D02*
X5175Y552D01*
X5111Y551D02*
X5134Y551D01*
X5152Y551D02*
X5175Y551D01*
X5111Y550D02*
X5135Y550D01*
X5150Y550D02*
X5174Y550D01*
X5112Y549D02*
X5138Y549D01*
X5148Y549D02*
X5174Y549D01*
X5112Y548D02*
X5173Y548D01*
X5113Y547D02*
X5173Y547D01*
X5113Y546D02*
X5172Y546D01*
X5114Y545D02*
X5172Y545D01*
X5114Y544D02*
X5171Y544D01*
X5115Y543D02*
X5171Y543D01*
X5116Y542D02*
X5170Y542D01*
X5117Y541D02*
X5169Y541D01*
X5117Y540D02*
X5168Y540D01*
X5118Y539D02*
X5167Y539D01*
X5119Y538D02*
X5166Y538D01*
X5120Y537D02*
X5165Y537D01*
X5122Y536D02*
X5164Y536D01*
X5123Y535D02*
X5162Y535D01*
X5125Y534D02*
X5161Y534D01*
X5126Y533D02*
X5159Y533D01*
X5128Y532D02*
X5157Y532D01*
X5131Y531D02*
X5155Y531D01*
X5134Y530D02*
X5152Y530D01*
X5138Y529D02*
X5148Y529D01*
X5138Y498D02*
X5147Y498D01*
X5134Y497D02*
X5152Y497D01*
X5131Y496D02*
X5155Y496D01*
X5129Y495D02*
X5157Y495D01*
X5126Y494D02*
X5159Y494D01*
X5125Y493D02*
X5161Y493D01*
X5123Y492D02*
X5162Y492D01*
X5122Y491D02*
X5164Y491D01*
X5121Y490D02*
X5165Y490D01*
X5119Y489D02*
X5166Y489D01*
X5118Y488D02*
X5167Y488D01*
X5117Y487D02*
X5168Y487D01*
X5117Y486D02*
X5169Y486D01*
X5116Y485D02*
X5170Y485D01*
X5115Y484D02*
X5171Y484D01*
X5114Y483D02*
X5171Y483D01*
X5114Y482D02*
X5172Y482D01*
X5113Y481D02*
X5172Y481D01*
X5113Y480D02*
X5173Y480D01*
X5112Y479D02*
X5173Y479D01*
X5112Y478D02*
X5138Y478D01*
X5147Y478D02*
X5174Y478D01*
X5111Y477D02*
X5136Y477D01*
X5150Y477D02*
X5174Y477D01*
X5111Y476D02*
X5134Y476D01*
X5152Y476D02*
X5175Y476D01*
X5110Y475D02*
X5133Y475D01*
X5153Y475D02*
X5175Y475D01*
X5110Y474D02*
X5132Y474D01*
X5154Y474D02*
X5176Y474D01*
X5110Y473D02*
X5131Y473D01*
X5155Y473D02*
X5176Y473D01*
X5110Y472D02*
X5130Y472D01*
X5156Y472D02*
X5176Y472D01*
X5109Y471D02*
X5129Y471D01*
X5156Y471D02*
X5176Y471D01*
X5109Y470D02*
X5129Y470D01*
X5157Y470D02*
X5177Y470D01*
X5109Y469D02*
X5128Y469D01*
X5157Y469D02*
X5177Y469D01*
X5109Y468D02*
X5128Y468D01*
X5158Y468D02*
X5177Y468D01*
X5109Y467D02*
X5128Y467D01*
X5158Y467D02*
X5177Y467D01*
X5108Y466D02*
X5127Y466D01*
X5158Y466D02*
X5177Y466D01*
X5108Y465D02*
X5127Y465D01*
X5158Y465D02*
X5177Y465D01*
X5108Y464D02*
X5127Y464D01*
X5158Y464D02*
X5177Y464D01*
X5108Y463D02*
X5127Y463D01*
X5158Y463D02*
X5177Y463D01*
X5108Y462D02*
X5127Y462D01*
X5158Y462D02*
X5177Y462D01*
X5108Y461D02*
X5127Y461D01*
X5158Y461D02*
X5177Y461D01*
X5109Y460D02*
X5128Y460D01*
X5158Y460D02*
X5177Y460D01*
X5109Y459D02*
X5128Y459D01*
X5158Y459D02*
X5177Y459D01*
X5109Y458D02*
X5128Y458D01*
X5157Y458D02*
X5177Y458D01*
X5109Y457D02*
X5129Y457D01*
X5157Y457D02*
X5177Y457D01*
X5109Y456D02*
X5129Y456D01*
X5156Y456D02*
X5176Y456D01*
X5110Y455D02*
X5130Y455D01*
X5156Y455D02*
X5176Y455D01*
X5110Y454D02*
X5131Y454D01*
X5155Y454D02*
X5176Y454D01*
X5110Y453D02*
X5132Y453D01*
X5154Y453D02*
X5176Y453D01*
X5110Y452D02*
X5133Y452D01*
X5153Y452D02*
X5175Y452D01*
X5111Y451D02*
X5134Y451D01*
X5152Y451D02*
X5175Y451D01*
X5111Y450D02*
X5136Y450D01*
X5150Y450D02*
X5174Y450D01*
X5112Y449D02*
X5138Y449D01*
X5147Y449D02*
X5174Y449D01*
X5112Y448D02*
X5173Y448D01*
X5113Y447D02*
X5173Y447D01*
X5113Y446D02*
X5172Y446D01*
X5114Y445D02*
X5172Y445D01*
X5114Y444D02*
X5171Y444D01*
X5115Y443D02*
X5171Y443D01*
X5116Y442D02*
X5170Y442D01*
X5117Y441D02*
X5169Y441D01*
X5117Y440D02*
X5168Y440D01*
X5118Y439D02*
X5167Y439D01*
X5119Y438D02*
X5166Y438D01*
X5121Y437D02*
X5165Y437D01*
X5122Y436D02*
X5164Y436D01*
X5123Y435D02*
X5162Y435D01*
X5125Y434D02*
X5161Y434D01*
X5127Y433D02*
X5159Y433D01*
X5129Y432D02*
X5157Y432D01*
X5131Y431D02*
X5155Y431D01*
X5134Y430D02*
X5152Y430D01*
X5138Y429D02*
X5147Y429D01*
X49Y398D02*
X102Y398D01*
X1384Y398D02*
X1437Y398D01*
X49Y397D02*
X108Y397D01*
X1378Y397D02*
X1437Y397D01*
X49Y396D02*
X111Y396D01*
X1375Y396D02*
X1437Y396D01*
X49Y395D02*
X113Y395D01*
X1373Y395D02*
X1437Y395D01*
X49Y394D02*
X115Y394D01*
X1371Y394D02*
X1437Y394D01*
X49Y393D02*
X117Y393D01*
X1369Y393D02*
X1437Y393D01*
X49Y392D02*
X119Y392D01*
X1368Y392D02*
X1437Y392D01*
X49Y391D02*
X120Y391D01*
X1366Y391D02*
X1437Y391D01*
X49Y390D02*
X121Y390D01*
X1365Y390D02*
X1437Y390D01*
X49Y389D02*
X122Y389D01*
X1364Y389D02*
X1437Y389D01*
X49Y388D02*
X123Y388D01*
X1363Y388D02*
X1437Y388D01*
X49Y387D02*
X124Y387D01*
X1362Y387D02*
X1437Y387D01*
X49Y386D02*
X125Y386D01*
X1361Y386D02*
X1437Y386D01*
X49Y385D02*
X126Y385D01*
X1360Y385D02*
X1437Y385D01*
X49Y384D02*
X127Y384D01*
X1360Y384D02*
X1437Y384D01*
X49Y383D02*
X127Y383D01*
X1359Y383D02*
X1437Y383D01*
X49Y382D02*
X128Y382D01*
X1358Y382D02*
X1437Y382D01*
X49Y381D02*
X129Y381D01*
X1358Y381D02*
X1437Y381D01*
X49Y380D02*
X129Y380D01*
X1357Y380D02*
X1437Y380D01*
X49Y379D02*
X130Y379D01*
X1357Y379D02*
X1437Y379D01*
X49Y378D02*
X130Y378D01*
X1356Y378D02*
X1437Y378D01*
X49Y377D02*
X131Y377D01*
X1356Y377D02*
X1437Y377D01*
X49Y376D02*
X131Y376D01*
X1355Y376D02*
X1437Y376D01*
X49Y375D02*
X131Y375D01*
X1355Y375D02*
X1437Y375D01*
X49Y374D02*
X132Y374D01*
X1355Y374D02*
X1437Y374D01*
X49Y373D02*
X132Y373D01*
X1354Y373D02*
X1437Y373D01*
X49Y372D02*
X132Y372D01*
X1354Y372D02*
X1437Y372D01*
X49Y371D02*
X133Y371D01*
X1354Y371D02*
X1437Y371D01*
X49Y370D02*
X133Y370D01*
X1354Y370D02*
X1437Y370D01*
X49Y369D02*
X133Y369D01*
X1353Y369D02*
X1437Y369D01*
X49Y368D02*
X133Y368D01*
X1353Y368D02*
X1437Y368D01*
X49Y367D02*
X133Y367D01*
X1353Y367D02*
X1437Y367D01*
X49Y366D02*
X133Y366D01*
X1353Y366D02*
X1437Y366D01*
X49Y365D02*
X133Y365D01*
X1353Y365D02*
X1437Y365D01*
X49Y364D02*
X133Y364D01*
X1353Y364D02*
X1437Y364D01*
X49Y363D02*
X133Y363D01*
X1353Y363D02*
X1437Y363D01*
X49Y362D02*
X133Y362D01*
X1353Y362D02*
X1437Y362D01*
X49Y361D02*
X133Y361D01*
X1353Y361D02*
X1437Y361D01*
X49Y360D02*
X133Y360D01*
X1353Y360D02*
X1437Y360D01*
X49Y359D02*
X133Y359D01*
X1353Y359D02*
X1437Y359D01*
X49Y358D02*
X133Y358D01*
X1353Y358D02*
X1437Y358D01*
X49Y357D02*
X133Y357D01*
X1354Y357D02*
X1437Y357D01*
X49Y356D02*
X133Y356D01*
X1354Y356D02*
X1437Y356D01*
X49Y355D02*
X132Y355D01*
X1354Y355D02*
X1437Y355D01*
X49Y354D02*
X132Y354D01*
X1354Y354D02*
X1437Y354D01*
X49Y353D02*
X132Y353D01*
X1355Y353D02*
X1437Y353D01*
X49Y352D02*
X131Y352D01*
X1355Y352D02*
X1437Y352D01*
X49Y351D02*
X131Y351D01*
X1355Y351D02*
X1437Y351D01*
X49Y350D02*
X131Y350D01*
X1356Y350D02*
X1437Y350D01*
X49Y349D02*
X130Y349D01*
X1356Y349D02*
X1437Y349D01*
X49Y348D02*
X130Y348D01*
X1357Y348D02*
X1437Y348D01*
X49Y347D02*
X129Y347D01*
X1357Y347D02*
X1437Y347D01*
X49Y346D02*
X129Y346D01*
X1358Y346D02*
X1437Y346D01*
X49Y345D02*
X128Y345D01*
X1358Y345D02*
X1437Y345D01*
X49Y344D02*
X127Y344D01*
X1359Y344D02*
X1437Y344D01*
X49Y343D02*
X127Y343D01*
X1360Y343D02*
X1437Y343D01*
X49Y342D02*
X126Y342D01*
X1360Y342D02*
X1437Y342D01*
X49Y341D02*
X125Y341D01*
X1361Y341D02*
X1437Y341D01*
X49Y340D02*
X124Y340D01*
X1362Y340D02*
X1437Y340D01*
X49Y339D02*
X123Y339D01*
X1363Y339D02*
X1437Y339D01*
X49Y338D02*
X122Y338D01*
X1364Y338D02*
X1437Y338D01*
X49Y337D02*
X121Y337D01*
X1365Y337D02*
X1437Y337D01*
X49Y336D02*
X120Y336D01*
X1366Y336D02*
X1437Y336D01*
X49Y335D02*
X119Y335D01*
X1368Y335D02*
X1437Y335D01*
X49Y334D02*
X117Y334D01*
X1369Y334D02*
X1437Y334D01*
X49Y333D02*
X115Y333D01*
X1371Y333D02*
X1437Y333D01*
X49Y332D02*
X113Y332D01*
X1373Y332D02*
X1437Y332D01*
X49Y331D02*
X111Y331D01*
X1375Y331D02*
X1437Y331D01*
X49Y330D02*
X108Y330D01*
X1378Y330D02*
X1437Y330D01*
X49Y329D02*
X102Y329D01*
X1384Y329D02*
X1437Y329D01*
X49Y291D02*
X105Y291D01*
X1381Y291D02*
X1437Y291D01*
X49Y290D02*
X110Y290D01*
X1377Y290D02*
X1437Y290D01*
X49Y289D02*
X112Y289D01*
X1374Y289D02*
X1437Y289D01*
X49Y288D02*
X114Y288D01*
X1372Y288D02*
X1437Y288D01*
X49Y287D02*
X116Y287D01*
X1370Y287D02*
X1437Y287D01*
X49Y286D02*
X118Y286D01*
X1368Y286D02*
X1437Y286D01*
X49Y285D02*
X119Y285D01*
X1367Y285D02*
X1437Y285D01*
X49Y284D02*
X121Y284D01*
X1366Y284D02*
X1437Y284D01*
X49Y283D02*
X122Y283D01*
X1365Y283D02*
X1437Y283D01*
X49Y282D02*
X123Y282D01*
X1364Y282D02*
X1437Y282D01*
X49Y281D02*
X124Y281D01*
X1363Y281D02*
X1437Y281D01*
X49Y280D02*
X125Y280D01*
X1362Y280D02*
X1437Y280D01*
X49Y279D02*
X126Y279D01*
X1361Y279D02*
X1437Y279D01*
X49Y278D02*
X126Y278D01*
X1360Y278D02*
X1437Y278D01*
X49Y277D02*
X127Y277D01*
X1359Y277D02*
X1437Y277D01*
X49Y276D02*
X128Y276D01*
X1359Y276D02*
X1437Y276D01*
X49Y275D02*
X128Y275D01*
X1358Y275D02*
X1437Y275D01*
X49Y274D02*
X129Y274D01*
X1357Y274D02*
X1437Y274D01*
X49Y273D02*
X129Y273D01*
X1357Y273D02*
X1437Y273D01*
X49Y272D02*
X130Y272D01*
X1356Y272D02*
X1437Y272D01*
X49Y271D02*
X130Y271D01*
X1356Y271D02*
X1437Y271D01*
X49Y270D02*
X131Y270D01*
X1355Y270D02*
X1437Y270D01*
X49Y269D02*
X131Y269D01*
X1355Y269D02*
X1437Y269D01*
X49Y268D02*
X132Y268D01*
X1355Y268D02*
X1437Y268D01*
X49Y267D02*
X132Y267D01*
X1354Y267D02*
X1437Y267D01*
X49Y266D02*
X132Y266D01*
X1354Y266D02*
X1437Y266D01*
X49Y265D02*
X132Y265D01*
X1354Y265D02*
X1437Y265D01*
X49Y264D02*
X133Y264D01*
X1354Y264D02*
X1437Y264D01*
X49Y263D02*
X133Y263D01*
X1353Y263D02*
X1437Y263D01*
X49Y262D02*
X133Y262D01*
X1353Y262D02*
X1437Y262D01*
X49Y261D02*
X133Y261D01*
X1353Y261D02*
X1437Y261D01*
X49Y260D02*
X133Y260D01*
X1353Y260D02*
X1437Y260D01*
X49Y259D02*
X133Y259D01*
X1353Y259D02*
X1437Y259D01*
X49Y258D02*
X133Y258D01*
X1353Y258D02*
X1437Y258D01*
X49Y257D02*
X133Y257D01*
X1353Y257D02*
X1437Y257D01*
X49Y256D02*
X133Y256D01*
X1353Y256D02*
X1437Y256D01*
X49Y255D02*
X133Y255D01*
X1353Y255D02*
X1437Y255D01*
X49Y254D02*
X133Y254D01*
X1353Y254D02*
X1437Y254D01*
X49Y253D02*
X133Y253D01*
X1353Y253D02*
X1437Y253D01*
X49Y252D02*
X133Y252D01*
X1353Y252D02*
X1437Y252D01*
X49Y251D02*
X133Y251D01*
X1353Y251D02*
X1437Y251D01*
X49Y250D02*
X133Y250D01*
X1354Y250D02*
X1437Y250D01*
X49Y249D02*
X132Y249D01*
X1354Y249D02*
X1437Y249D01*
X49Y248D02*
X132Y248D01*
X1354Y248D02*
X1437Y248D01*
X49Y247D02*
X132Y247D01*
X1354Y247D02*
X1437Y247D01*
X49Y246D02*
X132Y246D01*
X1355Y246D02*
X1437Y246D01*
X49Y245D02*
X131Y245D01*
X1355Y245D02*
X1437Y245D01*
X49Y244D02*
X131Y244D01*
X1355Y244D02*
X1437Y244D01*
X49Y243D02*
X130Y243D01*
X1356Y243D02*
X1437Y243D01*
X49Y242D02*
X130Y242D01*
X1356Y242D02*
X1437Y242D01*
X49Y241D02*
X130Y241D01*
X1357Y241D02*
X1437Y241D01*
X49Y240D02*
X129Y240D01*
X1357Y240D02*
X1437Y240D01*
X49Y239D02*
X128Y239D01*
X1358Y239D02*
X1437Y239D01*
X49Y238D02*
X128Y238D01*
X1358Y238D02*
X1437Y238D01*
X49Y237D02*
X127Y237D01*
X1359Y237D02*
X1437Y237D01*
X49Y236D02*
X126Y236D01*
X1360Y236D02*
X1437Y236D01*
X49Y235D02*
X126Y235D01*
X1361Y235D02*
X1437Y235D01*
X49Y234D02*
X125Y234D01*
X1361Y234D02*
X1437Y234D01*
X49Y233D02*
X124Y233D01*
X1362Y233D02*
X1437Y233D01*
X49Y232D02*
X123Y232D01*
X1363Y232D02*
X1437Y232D01*
X49Y231D02*
X122Y231D01*
X1364Y231D02*
X1437Y231D01*
X49Y230D02*
X121Y230D01*
X1366Y230D02*
X1437Y230D01*
X49Y229D02*
X119Y229D01*
X1367Y229D02*
X1437Y229D01*
X49Y228D02*
X118Y228D01*
X1368Y228D02*
X1437Y228D01*
X49Y227D02*
X116Y227D01*
X1370Y227D02*
X1437Y227D01*
X49Y226D02*
X115Y226D01*
X1372Y226D02*
X1437Y226D01*
X49Y225D02*
X113Y225D01*
X1374Y225D02*
X1437Y225D01*
X49Y224D02*
X110Y224D01*
X1376Y224D02*
X1437Y224D01*
X49Y223D02*
X106Y223D01*
X1380Y223D02*
X1437Y223D01*
X49Y184D02*
X107Y184D01*
X1379Y184D02*
X1437Y184D01*
X49Y183D02*
X111Y183D01*
X1376Y183D02*
X1437Y183D01*
X49Y182D02*
X113Y182D01*
X1373Y182D02*
X1437Y182D01*
X49Y181D02*
X115Y181D01*
X1371Y181D02*
X1437Y181D01*
X49Y180D02*
X117Y180D01*
X1369Y180D02*
X1437Y180D01*
X49Y179D02*
X118Y179D01*
X1368Y179D02*
X1437Y179D01*
X49Y178D02*
X120Y178D01*
X1367Y178D02*
X1437Y178D01*
X49Y177D02*
X121Y177D01*
X1365Y177D02*
X1437Y177D01*
X49Y176D02*
X122Y176D01*
X1364Y176D02*
X1437Y176D01*
X49Y175D02*
X123Y175D01*
X1363Y175D02*
X1437Y175D01*
X49Y174D02*
X124Y174D01*
X1362Y174D02*
X1437Y174D01*
X49Y173D02*
X125Y173D01*
X1361Y173D02*
X1437Y173D01*
X49Y172D02*
X126Y172D01*
X1360Y172D02*
X1437Y172D01*
X49Y171D02*
X127Y171D01*
X1360Y171D02*
X1437Y171D01*
X49Y170D02*
X127Y170D01*
X1359Y170D02*
X1437Y170D01*
X49Y169D02*
X128Y169D01*
X1358Y169D02*
X1437Y169D01*
X49Y168D02*
X129Y168D01*
X1358Y168D02*
X1437Y168D01*
X49Y167D02*
X129Y167D01*
X1357Y167D02*
X1437Y167D01*
X49Y166D02*
X130Y166D01*
X1357Y166D02*
X1437Y166D01*
X49Y165D02*
X130Y165D01*
X1356Y165D02*
X1437Y165D01*
X49Y164D02*
X131Y164D01*
X1356Y164D02*
X1437Y164D01*
X49Y163D02*
X131Y163D01*
X1355Y163D02*
X1437Y163D01*
X49Y162D02*
X131Y162D01*
X1355Y162D02*
X1437Y162D01*
X49Y161D02*
X132Y161D01*
X1355Y161D02*
X1437Y161D01*
X49Y160D02*
X132Y160D01*
X1354Y160D02*
X1437Y160D01*
X49Y159D02*
X132Y159D01*
X1354Y159D02*
X1437Y159D01*
X49Y158D02*
X133Y158D01*
X1354Y158D02*
X1437Y158D01*
X49Y157D02*
X133Y157D01*
X1354Y157D02*
X1437Y157D01*
X49Y156D02*
X133Y156D01*
X1353Y156D02*
X1437Y156D01*
X49Y155D02*
X133Y155D01*
X1353Y155D02*
X1437Y155D01*
X49Y154D02*
X133Y154D01*
X1353Y154D02*
X1437Y154D01*
X49Y153D02*
X133Y153D01*
X1353Y153D02*
X1437Y153D01*
X49Y152D02*
X133Y152D01*
X1353Y152D02*
X1437Y152D01*
X49Y151D02*
X134Y151D01*
X1353Y151D02*
X1437Y151D01*
X49Y150D02*
X133Y150D01*
X1353Y150D02*
X1437Y150D01*
X49Y149D02*
X133Y149D01*
X1353Y149D02*
X1437Y149D01*
X49Y148D02*
X133Y148D01*
X1353Y148D02*
X1437Y148D01*
X49Y147D02*
X133Y147D01*
X1353Y147D02*
X1437Y147D01*
X49Y146D02*
X133Y146D01*
X1353Y146D02*
X1437Y146D01*
X49Y145D02*
X133Y145D01*
X1353Y145D02*
X1437Y145D01*
X49Y144D02*
X133Y144D01*
X1354Y144D02*
X1437Y144D01*
X49Y143D02*
X133Y143D01*
X1354Y143D02*
X1437Y143D01*
X49Y142D02*
X132Y142D01*
X1354Y142D02*
X1437Y142D01*
X49Y141D02*
X132Y141D01*
X1354Y141D02*
X1437Y141D01*
X49Y140D02*
X132Y140D01*
X1354Y140D02*
X1437Y140D01*
X49Y139D02*
X131Y139D01*
X1355Y139D02*
X1437Y139D01*
X49Y138D02*
X131Y138D01*
X1355Y138D02*
X1437Y138D01*
X49Y137D02*
X131Y137D01*
X1356Y137D02*
X1437Y137D01*
X49Y136D02*
X130Y136D01*
X1356Y136D02*
X1437Y136D01*
X49Y135D02*
X130Y135D01*
X1356Y135D02*
X1437Y135D01*
X49Y134D02*
X129Y134D01*
X1357Y134D02*
X1437Y134D01*
X49Y133D02*
X129Y133D01*
X1358Y133D02*
X1437Y133D01*
X49Y132D02*
X128Y132D01*
X1358Y132D02*
X1437Y132D01*
X49Y131D02*
X128Y131D01*
X1359Y131D02*
X1437Y131D01*
X49Y130D02*
X127Y130D01*
X1359Y130D02*
X1437Y130D01*
X49Y129D02*
X126Y129D01*
X1360Y129D02*
X1437Y129D01*
X49Y128D02*
X125Y128D01*
X1361Y128D02*
X1437Y128D01*
X49Y127D02*
X124Y127D01*
X1362Y127D02*
X1437Y127D01*
X49Y126D02*
X124Y126D01*
X1363Y126D02*
X1437Y126D01*
X49Y125D02*
X122Y125D01*
X1364Y125D02*
X1437Y125D01*
X49Y124D02*
X121Y124D01*
X1365Y124D02*
X1437Y124D01*
X49Y123D02*
X120Y123D01*
X1366Y123D02*
X1437Y123D01*
X49Y122D02*
X119Y122D01*
X1367Y122D02*
X1437Y122D01*
X49Y121D02*
X117Y121D01*
X1369Y121D02*
X1437Y121D01*
X49Y120D02*
X116Y120D01*
X1370Y120D02*
X1437Y120D01*
X49Y119D02*
X114Y119D01*
X1372Y119D02*
X1437Y119D01*
X49Y118D02*
X112Y118D01*
X1375Y118D02*
X1437Y118D01*
X49Y117D02*
X109Y117D01*
X1378Y117D02*
X1437Y117D01*
X49Y116D02*
X104Y116D01*
X1382Y116D02*
X1437Y116D01*
D02*
G04 End of Copper0*
M02*