G04 MADE WITH FRITZING*
G04 WWW.FRITZING.ORG*
G04 DOUBLE SIDED*
G04 HOLES PLATED*
G04 CONTOUR ON CENTER OF CONTOUR VECTOR*
%ASAXBY*%
%FSLAX23Y23*%
%MOIN*%
%OFA0B0*%
%SFA1.0B1.0*%
%ADD10C,0.085000*%
%ADD11C,0.080000*%
%ADD12C,0.055440*%
%ADD13C,0.049370*%
%ADD14R,0.053307X0.057244*%
%ADD15R,0.080000X0.079972*%
%ADD16R,0.001000X0.001000*%
%LNMASK1*%
G90*
G70*
G54D10*
X2598Y463D03*
X2342Y463D03*
X2598Y641D03*
X2342Y641D03*
G54D11*
X3292Y263D03*
X3392Y263D03*
X3492Y263D03*
X3592Y263D03*
X3692Y263D03*
X3792Y263D03*
X3892Y263D03*
X3992Y263D03*
X4092Y263D03*
X4192Y263D03*
X4292Y263D03*
X4392Y263D03*
X4492Y263D03*
X4592Y263D03*
X4692Y263D03*
X3292Y863D03*
X3392Y863D03*
X3492Y863D03*
X3592Y863D03*
X3692Y863D03*
X3792Y863D03*
X3892Y863D03*
X3992Y863D03*
X4092Y863D03*
X4192Y863D03*
X4292Y863D03*
X4392Y863D03*
X4492Y863D03*
X4592Y863D03*
X4692Y863D03*
G54D12*
X93Y813D03*
X93Y707D03*
X93Y600D03*
X1392Y813D03*
X1392Y707D03*
X1392Y600D03*
G54D10*
X1873Y613D03*
X1873Y513D03*
G54D12*
X93Y363D03*
X93Y257D03*
X93Y150D03*
X1392Y363D03*
X1392Y257D03*
X1392Y150D03*
G54D13*
X3276Y746D03*
X2820Y434D03*
G54D14*
X2892Y580D03*
X2892Y513D03*
G54D15*
X3292Y263D03*
G54D16*
X44Y852D02*
X107Y852D01*
X1379Y852D02*
X1442Y852D01*
X44Y851D02*
X111Y851D01*
X1376Y851D02*
X1442Y851D01*
X44Y850D02*
X113Y850D01*
X1373Y850D02*
X1442Y850D01*
X44Y849D02*
X116Y849D01*
X1370Y849D02*
X1442Y849D01*
X44Y848D02*
X118Y848D01*
X1368Y848D02*
X1442Y848D01*
X44Y847D02*
X120Y847D01*
X1367Y847D02*
X1442Y847D01*
X44Y846D02*
X121Y846D01*
X1365Y846D02*
X1442Y846D01*
X44Y845D02*
X123Y845D01*
X1364Y845D02*
X1442Y845D01*
X44Y844D02*
X124Y844D01*
X1362Y844D02*
X1442Y844D01*
X44Y843D02*
X125Y843D01*
X1361Y843D02*
X1442Y843D01*
X44Y842D02*
X126Y842D01*
X1360Y842D02*
X1442Y842D01*
X44Y841D02*
X127Y841D01*
X1359Y841D02*
X1442Y841D01*
X44Y840D02*
X128Y840D01*
X1358Y840D02*
X1442Y840D01*
X44Y839D02*
X129Y839D01*
X1357Y839D02*
X1442Y839D01*
X44Y838D02*
X130Y838D01*
X1357Y838D02*
X1442Y838D01*
X44Y837D02*
X130Y837D01*
X1356Y837D02*
X1442Y837D01*
X44Y836D02*
X131Y836D01*
X1355Y836D02*
X1442Y836D01*
X44Y835D02*
X132Y835D01*
X1354Y835D02*
X1442Y835D01*
X44Y834D02*
X132Y834D01*
X1354Y834D02*
X1442Y834D01*
X44Y833D02*
X133Y833D01*
X1353Y833D02*
X1442Y833D01*
X44Y832D02*
X134Y832D01*
X1353Y832D02*
X1442Y832D01*
X44Y831D02*
X134Y831D01*
X1352Y831D02*
X1442Y831D01*
X44Y830D02*
X135Y830D01*
X1352Y830D02*
X1442Y830D01*
X44Y829D02*
X135Y829D01*
X1351Y829D02*
X1442Y829D01*
X44Y828D02*
X135Y828D01*
X1351Y828D02*
X1442Y828D01*
X44Y827D02*
X136Y827D01*
X1351Y827D02*
X1442Y827D01*
X44Y826D02*
X136Y826D01*
X1350Y826D02*
X1442Y826D01*
X44Y825D02*
X137Y825D01*
X1350Y825D02*
X1442Y825D01*
X44Y824D02*
X137Y824D01*
X1350Y824D02*
X1442Y824D01*
X44Y823D02*
X137Y823D01*
X1349Y823D02*
X1442Y823D01*
X44Y822D02*
X137Y822D01*
X1349Y822D02*
X1442Y822D01*
X44Y821D02*
X138Y821D01*
X1349Y821D02*
X1442Y821D01*
X44Y820D02*
X138Y820D01*
X1349Y820D02*
X1442Y820D01*
X44Y819D02*
X138Y819D01*
X1348Y819D02*
X1442Y819D01*
X44Y818D02*
X138Y818D01*
X1348Y818D02*
X1442Y818D01*
X44Y817D02*
X138Y817D01*
X1348Y817D02*
X1442Y817D01*
X44Y816D02*
X138Y816D01*
X1348Y816D02*
X1442Y816D01*
X44Y815D02*
X138Y815D01*
X1348Y815D02*
X1442Y815D01*
X44Y814D02*
X138Y814D01*
X1348Y814D02*
X1442Y814D01*
X44Y813D02*
X138Y813D01*
X1348Y813D02*
X1442Y813D01*
X44Y812D02*
X138Y812D01*
X1348Y812D02*
X1442Y812D01*
X44Y811D02*
X138Y811D01*
X1348Y811D02*
X1442Y811D01*
X44Y810D02*
X138Y810D01*
X1348Y810D02*
X1442Y810D01*
X44Y809D02*
X138Y809D01*
X1348Y809D02*
X1442Y809D01*
X44Y808D02*
X138Y808D01*
X1348Y808D02*
X1442Y808D01*
X44Y807D02*
X138Y807D01*
X1348Y807D02*
X1442Y807D01*
X44Y806D02*
X138Y806D01*
X1349Y806D02*
X1442Y806D01*
X44Y805D02*
X137Y805D01*
X1349Y805D02*
X1442Y805D01*
X44Y804D02*
X137Y804D01*
X1349Y804D02*
X1442Y804D01*
X44Y803D02*
X137Y803D01*
X1349Y803D02*
X1442Y803D01*
X44Y802D02*
X137Y802D01*
X1350Y802D02*
X1442Y802D01*
X44Y801D02*
X136Y801D01*
X1350Y801D02*
X1442Y801D01*
X44Y800D02*
X136Y800D01*
X1350Y800D02*
X1442Y800D01*
X44Y799D02*
X136Y799D01*
X1351Y799D02*
X1442Y799D01*
X44Y798D02*
X135Y798D01*
X1351Y798D02*
X1442Y798D01*
X44Y797D02*
X135Y797D01*
X1351Y797D02*
X1442Y797D01*
X44Y796D02*
X134Y796D01*
X1352Y796D02*
X1442Y796D01*
X44Y795D02*
X134Y795D01*
X1352Y795D02*
X1442Y795D01*
X44Y794D02*
X133Y794D01*
X1353Y794D02*
X1442Y794D01*
X44Y793D02*
X133Y793D01*
X1353Y793D02*
X1442Y793D01*
X44Y792D02*
X132Y792D01*
X1354Y792D02*
X1442Y792D01*
X44Y791D02*
X132Y791D01*
X1355Y791D02*
X1442Y791D01*
X44Y790D02*
X131Y790D01*
X1355Y790D02*
X1442Y790D01*
X44Y789D02*
X130Y789D01*
X1356Y789D02*
X1442Y789D01*
X44Y788D02*
X130Y788D01*
X1357Y788D02*
X1442Y788D01*
X44Y787D02*
X129Y787D01*
X1358Y787D02*
X1442Y787D01*
X44Y786D02*
X128Y786D01*
X1358Y786D02*
X1442Y786D01*
X44Y785D02*
X127Y785D01*
X1359Y785D02*
X1442Y785D01*
X44Y784D02*
X126Y784D01*
X1360Y784D02*
X1442Y784D01*
X44Y783D02*
X125Y783D01*
X1362Y783D02*
X1442Y783D01*
X44Y782D02*
X123Y782D01*
X1363Y782D02*
X1442Y782D01*
X44Y781D02*
X122Y781D01*
X1364Y781D02*
X1442Y781D01*
X44Y780D02*
X121Y780D01*
X1366Y780D02*
X1442Y780D01*
X44Y779D02*
X119Y779D01*
X1367Y779D02*
X1442Y779D01*
X44Y778D02*
X117Y778D01*
X1369Y778D02*
X1442Y778D01*
X44Y777D02*
X115Y777D01*
X1371Y777D02*
X1442Y777D01*
X44Y776D02*
X113Y776D01*
X1374Y776D02*
X1442Y776D01*
X44Y775D02*
X110Y775D01*
X1377Y775D02*
X1442Y775D01*
X44Y774D02*
X105Y774D01*
X1381Y774D02*
X1442Y774D01*
X44Y746D02*
X103Y746D01*
X1383Y746D02*
X1442Y746D01*
X44Y745D02*
X109Y745D01*
X1378Y745D02*
X1442Y745D01*
X44Y744D02*
X112Y744D01*
X1374Y744D02*
X1442Y744D01*
X44Y743D02*
X115Y743D01*
X1372Y743D02*
X1442Y743D01*
X44Y742D02*
X117Y742D01*
X1370Y742D02*
X1442Y742D01*
X44Y741D02*
X119Y741D01*
X1368Y741D02*
X1442Y741D01*
X44Y740D02*
X120Y740D01*
X1366Y740D02*
X1442Y740D01*
X44Y739D02*
X122Y739D01*
X1365Y739D02*
X1442Y739D01*
X44Y738D02*
X123Y738D01*
X1363Y738D02*
X1442Y738D01*
X44Y737D02*
X124Y737D01*
X1362Y737D02*
X1442Y737D01*
X44Y736D02*
X126Y736D01*
X1361Y736D02*
X1442Y736D01*
X44Y735D02*
X127Y735D01*
X1360Y735D02*
X1442Y735D01*
X44Y734D02*
X128Y734D01*
X1359Y734D02*
X1442Y734D01*
X44Y733D02*
X128Y733D01*
X1358Y733D02*
X1442Y733D01*
X44Y732D02*
X129Y732D01*
X1357Y732D02*
X1442Y732D01*
X44Y731D02*
X130Y731D01*
X1356Y731D02*
X1442Y731D01*
X44Y730D02*
X131Y730D01*
X1356Y730D02*
X1442Y730D01*
X44Y729D02*
X131Y729D01*
X1355Y729D02*
X1442Y729D01*
X44Y728D02*
X132Y728D01*
X1354Y728D02*
X1442Y728D01*
X44Y727D02*
X133Y727D01*
X1354Y727D02*
X1442Y727D01*
X44Y726D02*
X133Y726D01*
X1353Y726D02*
X1442Y726D01*
X44Y725D02*
X134Y725D01*
X1352Y725D02*
X1442Y725D01*
X44Y724D02*
X134Y724D01*
X1352Y724D02*
X1442Y724D01*
X44Y723D02*
X135Y723D01*
X1352Y723D02*
X1442Y723D01*
X44Y722D02*
X135Y722D01*
X1351Y722D02*
X1442Y722D01*
X44Y721D02*
X136Y721D01*
X1351Y721D02*
X1442Y721D01*
X44Y720D02*
X136Y720D01*
X1350Y720D02*
X1442Y720D01*
X44Y719D02*
X136Y719D01*
X1350Y719D02*
X1442Y719D01*
X44Y718D02*
X137Y718D01*
X1350Y718D02*
X1442Y718D01*
X44Y717D02*
X137Y717D01*
X1349Y717D02*
X1442Y717D01*
X44Y716D02*
X137Y716D01*
X1349Y716D02*
X1442Y716D01*
X44Y715D02*
X137Y715D01*
X1349Y715D02*
X1442Y715D01*
X44Y714D02*
X138Y714D01*
X1349Y714D02*
X1442Y714D01*
X44Y713D02*
X138Y713D01*
X1349Y713D02*
X1442Y713D01*
X44Y712D02*
X138Y712D01*
X1348Y712D02*
X1442Y712D01*
X44Y711D02*
X138Y711D01*
X1348Y711D02*
X1442Y711D01*
X44Y710D02*
X138Y710D01*
X1348Y710D02*
X1442Y710D01*
X44Y709D02*
X138Y709D01*
X1348Y709D02*
X1442Y709D01*
X44Y708D02*
X138Y708D01*
X1348Y708D02*
X1442Y708D01*
X44Y707D02*
X138Y707D01*
X1348Y707D02*
X1442Y707D01*
X44Y706D02*
X138Y706D01*
X1348Y706D02*
X1442Y706D01*
X44Y705D02*
X138Y705D01*
X1348Y705D02*
X1442Y705D01*
X44Y704D02*
X138Y704D01*
X1348Y704D02*
X1442Y704D01*
X44Y703D02*
X138Y703D01*
X1348Y703D02*
X1442Y703D01*
X44Y702D02*
X138Y702D01*
X1348Y702D02*
X1442Y702D01*
X44Y701D02*
X138Y701D01*
X1348Y701D02*
X1442Y701D01*
X44Y700D02*
X138Y700D01*
X1349Y700D02*
X1442Y700D01*
X44Y699D02*
X138Y699D01*
X1349Y699D02*
X1442Y699D01*
X44Y698D02*
X137Y698D01*
X1349Y698D02*
X1442Y698D01*
X44Y697D02*
X137Y697D01*
X1349Y697D02*
X1442Y697D01*
X44Y696D02*
X137Y696D01*
X1349Y696D02*
X1442Y696D01*
X44Y695D02*
X137Y695D01*
X1350Y695D02*
X1442Y695D01*
X44Y694D02*
X136Y694D01*
X1350Y694D02*
X1442Y694D01*
X44Y693D02*
X136Y693D01*
X1350Y693D02*
X1442Y693D01*
X44Y692D02*
X136Y692D01*
X1351Y692D02*
X1442Y692D01*
X44Y691D02*
X135Y691D01*
X1351Y691D02*
X1442Y691D01*
X44Y690D02*
X135Y690D01*
X1352Y690D02*
X1442Y690D01*
X44Y689D02*
X134Y689D01*
X1352Y689D02*
X1442Y689D01*
X44Y688D02*
X134Y688D01*
X1353Y688D02*
X1442Y688D01*
X44Y687D02*
X133Y687D01*
X1353Y687D02*
X1442Y687D01*
X44Y686D02*
X133Y686D01*
X1354Y686D02*
X1442Y686D01*
X44Y685D02*
X132Y685D01*
X1354Y685D02*
X1442Y685D01*
X44Y684D02*
X131Y684D01*
X1355Y684D02*
X1442Y684D01*
X44Y683D02*
X131Y683D01*
X1356Y683D02*
X1442Y683D01*
X44Y682D02*
X130Y682D01*
X1356Y682D02*
X1442Y682D01*
X44Y681D02*
X129Y681D01*
X1357Y681D02*
X1442Y681D01*
X44Y680D02*
X128Y680D01*
X1358Y680D02*
X1442Y680D01*
X44Y679D02*
X127Y679D01*
X1359Y679D02*
X1442Y679D01*
X44Y678D02*
X126Y678D01*
X1360Y678D02*
X1442Y678D01*
X44Y677D02*
X125Y677D01*
X1361Y677D02*
X1442Y677D01*
X44Y676D02*
X124Y676D01*
X1362Y676D02*
X1442Y676D01*
X44Y675D02*
X123Y675D01*
X1363Y675D02*
X1442Y675D01*
X44Y674D02*
X122Y674D01*
X1365Y674D02*
X1442Y674D01*
X44Y673D02*
X120Y673D01*
X1366Y673D02*
X1442Y673D01*
X44Y672D02*
X118Y672D01*
X1368Y672D02*
X1442Y672D01*
X44Y671D02*
X116Y671D01*
X1370Y671D02*
X1442Y671D01*
X44Y670D02*
X114Y670D01*
X1372Y670D02*
X1442Y670D01*
X44Y669D02*
X112Y669D01*
X1375Y669D02*
X1442Y669D01*
X44Y668D02*
X108Y668D01*
X1378Y668D02*
X1442Y668D01*
X44Y667D02*
X101Y667D01*
X1385Y667D02*
X1442Y667D01*
X44Y639D02*
X106Y639D01*
X1380Y639D02*
X1442Y639D01*
X44Y638D02*
X110Y638D01*
X1376Y638D02*
X1442Y638D01*
X44Y637D02*
X113Y637D01*
X1373Y637D02*
X1442Y637D01*
X44Y636D02*
X115Y636D01*
X1371Y636D02*
X1442Y636D01*
X44Y635D02*
X117Y635D01*
X1369Y635D02*
X1442Y635D01*
X44Y634D02*
X119Y634D01*
X1367Y634D02*
X1442Y634D01*
X44Y633D02*
X121Y633D01*
X1365Y633D02*
X1442Y633D01*
X44Y632D02*
X122Y632D01*
X1364Y632D02*
X1442Y632D01*
X44Y631D02*
X124Y631D01*
X1363Y631D02*
X1442Y631D01*
X44Y630D02*
X125Y630D01*
X1361Y630D02*
X1442Y630D01*
X44Y629D02*
X126Y629D01*
X1360Y629D02*
X1442Y629D01*
X44Y628D02*
X127Y628D01*
X1359Y628D02*
X1442Y628D01*
X44Y627D02*
X128Y627D01*
X1358Y627D02*
X1442Y627D01*
X44Y626D02*
X129Y626D01*
X1358Y626D02*
X1442Y626D01*
X44Y625D02*
X130Y625D01*
X1357Y625D02*
X1442Y625D01*
X44Y624D02*
X130Y624D01*
X1356Y624D02*
X1442Y624D01*
X44Y623D02*
X131Y623D01*
X1355Y623D02*
X1442Y623D01*
X44Y622D02*
X132Y622D01*
X1355Y622D02*
X1442Y622D01*
X44Y621D02*
X132Y621D01*
X1354Y621D02*
X1442Y621D01*
X44Y620D02*
X133Y620D01*
X1353Y620D02*
X1442Y620D01*
X44Y619D02*
X134Y619D01*
X1353Y619D02*
X1442Y619D01*
X44Y618D02*
X134Y618D01*
X1352Y618D02*
X1442Y618D01*
X44Y617D02*
X134Y617D01*
X1352Y617D02*
X1442Y617D01*
X44Y616D02*
X135Y616D01*
X1351Y616D02*
X1442Y616D01*
X44Y615D02*
X135Y615D01*
X1351Y615D02*
X1442Y615D01*
X44Y614D02*
X136Y614D01*
X1351Y614D02*
X1442Y614D01*
X44Y613D02*
X136Y613D01*
X1350Y613D02*
X1442Y613D01*
X44Y612D02*
X136Y612D01*
X1350Y612D02*
X1442Y612D01*
X44Y611D02*
X137Y611D01*
X1350Y611D02*
X1442Y611D01*
X44Y610D02*
X137Y610D01*
X1349Y610D02*
X1442Y610D01*
X44Y609D02*
X137Y609D01*
X1349Y609D02*
X1442Y609D01*
X44Y608D02*
X138Y608D01*
X1349Y608D02*
X1442Y608D01*
X44Y607D02*
X138Y607D01*
X1349Y607D02*
X1442Y607D01*
X44Y606D02*
X138Y606D01*
X1348Y606D02*
X1442Y606D01*
X44Y605D02*
X138Y605D01*
X1348Y605D02*
X1442Y605D01*
X44Y604D02*
X139Y604D01*
X1348Y604D02*
X1442Y604D01*
X44Y603D02*
X139Y603D01*
X1348Y603D02*
X1442Y603D01*
X5138Y603D02*
X5147Y603D01*
X44Y602D02*
X139Y602D01*
X1348Y602D02*
X1442Y602D01*
X5133Y602D02*
X5152Y602D01*
X44Y601D02*
X139Y601D01*
X1348Y601D02*
X1442Y601D01*
X5130Y601D02*
X5156Y601D01*
X44Y600D02*
X139Y600D01*
X1348Y600D02*
X1442Y600D01*
X5127Y600D02*
X5158Y600D01*
X44Y599D02*
X138Y599D01*
X1348Y599D02*
X1442Y599D01*
X5125Y599D02*
X5160Y599D01*
X44Y598D02*
X138Y598D01*
X1348Y598D02*
X1442Y598D01*
X5123Y598D02*
X5162Y598D01*
X44Y597D02*
X138Y597D01*
X1348Y597D02*
X1442Y597D01*
X5122Y597D02*
X5164Y597D01*
X44Y596D02*
X138Y596D01*
X1348Y596D02*
X1442Y596D01*
X5120Y596D02*
X5165Y596D01*
X44Y595D02*
X138Y595D01*
X1348Y595D02*
X1442Y595D01*
X5119Y595D02*
X5167Y595D01*
X44Y594D02*
X138Y594D01*
X1348Y594D02*
X1442Y594D01*
X5118Y594D02*
X5168Y594D01*
X44Y593D02*
X138Y593D01*
X1349Y593D02*
X1442Y593D01*
X5116Y593D02*
X5169Y593D01*
X44Y592D02*
X138Y592D01*
X1349Y592D02*
X1442Y592D01*
X5115Y592D02*
X5170Y592D01*
X44Y591D02*
X137Y591D01*
X1349Y591D02*
X1442Y591D01*
X5114Y591D02*
X5171Y591D01*
X44Y590D02*
X137Y590D01*
X1349Y590D02*
X1442Y590D01*
X5113Y590D02*
X5172Y590D01*
X44Y589D02*
X137Y589D01*
X1350Y589D02*
X1442Y589D01*
X5113Y589D02*
X5173Y589D01*
X44Y588D02*
X136Y588D01*
X1350Y588D02*
X1442Y588D01*
X5112Y588D02*
X5174Y588D01*
X44Y587D02*
X136Y587D01*
X1350Y587D02*
X1442Y587D01*
X5111Y587D02*
X5174Y587D01*
X44Y586D02*
X136Y586D01*
X1351Y586D02*
X1442Y586D01*
X5110Y586D02*
X5175Y586D01*
X44Y585D02*
X135Y585D01*
X1351Y585D02*
X1442Y585D01*
X5110Y585D02*
X5176Y585D01*
X44Y584D02*
X135Y584D01*
X1351Y584D02*
X1442Y584D01*
X5109Y584D02*
X5176Y584D01*
X44Y583D02*
X135Y583D01*
X1352Y583D02*
X1442Y583D01*
X5109Y583D02*
X5177Y583D01*
X44Y582D02*
X134Y582D01*
X1352Y582D02*
X1442Y582D01*
X5108Y582D02*
X5178Y582D01*
X44Y581D02*
X134Y581D01*
X1353Y581D02*
X1442Y581D01*
X5107Y581D02*
X5178Y581D01*
X44Y580D02*
X133Y580D01*
X1353Y580D02*
X1442Y580D01*
X5107Y580D02*
X5179Y580D01*
X44Y579D02*
X132Y579D01*
X1354Y579D02*
X1442Y579D01*
X5106Y579D02*
X5179Y579D01*
X44Y578D02*
X132Y578D01*
X1354Y578D02*
X1442Y578D01*
X5106Y578D02*
X5180Y578D01*
X44Y577D02*
X131Y577D01*
X1355Y577D02*
X1442Y577D01*
X5106Y577D02*
X5180Y577D01*
X44Y576D02*
X130Y576D01*
X1356Y576D02*
X1442Y576D01*
X5105Y576D02*
X5180Y576D01*
X44Y575D02*
X130Y575D01*
X1357Y575D02*
X1442Y575D01*
X5105Y575D02*
X5181Y575D01*
X44Y574D02*
X129Y574D01*
X1357Y574D02*
X1442Y574D01*
X5105Y574D02*
X5181Y574D01*
X44Y573D02*
X128Y573D01*
X1358Y573D02*
X1442Y573D01*
X5105Y573D02*
X5181Y573D01*
X44Y572D02*
X127Y572D01*
X1359Y572D02*
X1442Y572D01*
X5104Y572D02*
X5181Y572D01*
X44Y571D02*
X126Y571D01*
X1360Y571D02*
X1442Y571D01*
X5104Y571D02*
X5181Y571D01*
X44Y570D02*
X125Y570D01*
X1361Y570D02*
X1442Y570D01*
X5104Y570D02*
X5182Y570D01*
X44Y569D02*
X124Y569D01*
X1363Y569D02*
X1442Y569D01*
X5104Y569D02*
X5182Y569D01*
X44Y568D02*
X122Y568D01*
X1364Y568D02*
X1442Y568D01*
X5104Y568D02*
X5182Y568D01*
X44Y567D02*
X121Y567D01*
X1365Y567D02*
X1442Y567D01*
X5104Y567D02*
X5182Y567D01*
X44Y566D02*
X119Y566D01*
X1367Y566D02*
X1442Y566D01*
X5103Y566D02*
X5182Y566D01*
X44Y565D02*
X118Y565D01*
X1369Y565D02*
X1442Y565D01*
X5103Y565D02*
X5182Y565D01*
X44Y564D02*
X116Y564D01*
X1371Y564D02*
X1442Y564D01*
X5103Y564D02*
X5182Y564D01*
X44Y563D02*
X113Y563D01*
X1373Y563D02*
X1442Y563D01*
X5103Y563D02*
X5182Y563D01*
X44Y562D02*
X110Y562D01*
X1376Y562D02*
X1442Y562D01*
X5103Y562D02*
X5182Y562D01*
X44Y561D02*
X106Y561D01*
X1380Y561D02*
X1442Y561D01*
X5103Y561D02*
X5182Y561D01*
X5103Y560D02*
X5182Y560D01*
X5104Y559D02*
X5182Y559D01*
X5104Y558D02*
X5182Y558D01*
X5104Y557D02*
X5182Y557D01*
X5104Y556D02*
X5182Y556D01*
X5104Y555D02*
X5181Y555D01*
X5105Y554D02*
X5181Y554D01*
X5105Y553D02*
X5181Y553D01*
X5105Y552D02*
X5181Y552D01*
X5105Y551D02*
X5180Y551D01*
X5106Y550D02*
X5180Y550D01*
X5106Y549D02*
X5180Y549D01*
X5106Y548D02*
X5179Y548D01*
X5107Y547D02*
X5179Y547D01*
X5107Y546D02*
X5178Y546D01*
X5108Y545D02*
X5178Y545D01*
X5108Y544D02*
X5177Y544D01*
X5109Y543D02*
X5177Y543D01*
X5110Y542D02*
X5176Y542D01*
X5110Y541D02*
X5175Y541D01*
X5111Y540D02*
X5175Y540D01*
X5112Y539D02*
X5174Y539D01*
X5113Y538D02*
X5173Y538D01*
X5113Y537D02*
X5172Y537D01*
X5114Y536D02*
X5171Y536D01*
X5115Y535D02*
X5170Y535D01*
X5116Y534D02*
X5169Y534D01*
X5117Y533D02*
X5168Y533D01*
X5119Y532D02*
X5167Y532D01*
X5120Y531D02*
X5166Y531D01*
X5122Y530D02*
X5164Y530D01*
X5123Y529D02*
X5162Y529D01*
X5125Y528D02*
X5161Y528D01*
X5127Y527D02*
X5159Y527D01*
X5129Y526D02*
X5156Y526D01*
X5133Y525D02*
X5153Y525D01*
X5137Y524D02*
X5148Y524D01*
X5138Y503D02*
X5148Y503D01*
X5133Y502D02*
X5153Y502D01*
X5130Y501D02*
X5156Y501D01*
X5127Y500D02*
X5159Y500D01*
X5125Y499D02*
X5161Y499D01*
X5123Y498D02*
X5162Y498D01*
X5122Y497D02*
X5164Y497D01*
X5120Y496D02*
X5165Y496D01*
X5119Y495D02*
X5167Y495D01*
X5118Y494D02*
X5168Y494D01*
X5116Y493D02*
X5169Y493D01*
X5115Y492D02*
X5170Y492D01*
X5114Y491D02*
X5171Y491D01*
X5113Y490D02*
X5172Y490D01*
X5113Y489D02*
X5173Y489D01*
X5112Y488D02*
X5174Y488D01*
X5111Y487D02*
X5175Y487D01*
X5110Y486D02*
X5175Y486D01*
X5110Y485D02*
X5176Y485D01*
X5109Y484D02*
X5177Y484D01*
X5108Y483D02*
X5177Y483D01*
X5108Y482D02*
X5178Y482D01*
X5107Y481D02*
X5178Y481D01*
X5107Y480D02*
X5179Y480D01*
X5106Y479D02*
X5179Y479D01*
X5106Y478D02*
X5180Y478D01*
X5106Y477D02*
X5180Y477D01*
X5105Y476D02*
X5180Y476D01*
X5105Y475D02*
X5181Y475D01*
X5105Y474D02*
X5181Y474D01*
X5105Y473D02*
X5181Y473D01*
X5104Y472D02*
X5181Y472D01*
X5104Y471D02*
X5181Y471D01*
X5104Y470D02*
X5182Y470D01*
X5104Y469D02*
X5182Y469D01*
X5104Y468D02*
X5182Y468D01*
X5103Y467D02*
X5182Y467D01*
X5103Y466D02*
X5182Y466D01*
X5103Y465D02*
X5182Y465D01*
X5103Y464D02*
X5182Y464D01*
X5103Y463D02*
X5182Y463D01*
X5103Y462D02*
X5182Y462D01*
X5103Y461D02*
X5182Y461D01*
X5104Y460D02*
X5182Y460D01*
X5104Y459D02*
X5182Y459D01*
X5104Y458D02*
X5182Y458D01*
X5104Y457D02*
X5182Y457D01*
X5104Y456D02*
X5181Y456D01*
X5104Y455D02*
X5181Y455D01*
X5105Y454D02*
X5181Y454D01*
X5105Y453D02*
X5181Y453D01*
X5105Y452D02*
X5181Y452D01*
X5105Y451D02*
X5180Y451D01*
X5106Y450D02*
X5180Y450D01*
X5106Y449D02*
X5180Y449D01*
X5106Y448D02*
X5179Y448D01*
X5107Y447D02*
X5179Y447D01*
X5107Y446D02*
X5178Y446D01*
X5108Y445D02*
X5178Y445D01*
X5108Y444D02*
X5177Y444D01*
X5109Y443D02*
X5177Y443D01*
X5110Y442D02*
X5176Y442D01*
X5110Y441D02*
X5175Y441D01*
X5111Y440D02*
X5175Y440D01*
X5112Y439D02*
X5174Y439D01*
X5113Y438D02*
X5173Y438D01*
X5113Y437D02*
X5172Y437D01*
X5114Y436D02*
X5171Y436D01*
X5115Y435D02*
X5170Y435D01*
X5116Y434D02*
X5169Y434D01*
X5118Y433D02*
X5168Y433D01*
X5119Y432D02*
X5167Y432D01*
X5120Y431D02*
X5165Y431D01*
X5122Y430D02*
X5164Y430D01*
X5123Y429D02*
X5162Y429D01*
X5125Y428D02*
X5161Y428D01*
X5127Y427D02*
X5159Y427D01*
X5130Y426D02*
X5156Y426D01*
X5133Y425D02*
X5153Y425D01*
X5138Y424D02*
X5148Y424D01*
X44Y403D02*
X102Y403D01*
X1384Y403D02*
X1442Y403D01*
X44Y402D02*
X108Y402D01*
X1378Y402D02*
X1442Y402D01*
X44Y401D02*
X112Y401D01*
X1374Y401D02*
X1442Y401D01*
X44Y400D02*
X114Y400D01*
X1372Y400D02*
X1442Y400D01*
X44Y399D02*
X117Y399D01*
X1370Y399D02*
X1442Y399D01*
X44Y398D02*
X118Y398D01*
X1368Y398D02*
X1442Y398D01*
X44Y397D02*
X120Y397D01*
X1366Y397D02*
X1442Y397D01*
X44Y396D02*
X122Y396D01*
X1365Y396D02*
X1442Y396D01*
X44Y395D02*
X123Y395D01*
X1363Y395D02*
X1442Y395D01*
X44Y394D02*
X124Y394D01*
X1362Y394D02*
X1442Y394D01*
X44Y393D02*
X125Y393D01*
X1361Y393D02*
X1442Y393D01*
X44Y392D02*
X127Y392D01*
X1360Y392D02*
X1442Y392D01*
X44Y391D02*
X128Y391D01*
X1359Y391D02*
X1442Y391D01*
X44Y390D02*
X128Y390D01*
X1358Y390D02*
X1442Y390D01*
X44Y389D02*
X129Y389D01*
X1357Y389D02*
X1442Y389D01*
X44Y388D02*
X130Y388D01*
X1356Y388D02*
X1442Y388D01*
X44Y387D02*
X131Y387D01*
X1356Y387D02*
X1442Y387D01*
X44Y386D02*
X131Y386D01*
X1355Y386D02*
X1442Y386D01*
X44Y385D02*
X132Y385D01*
X1354Y385D02*
X1442Y385D01*
X44Y384D02*
X133Y384D01*
X1354Y384D02*
X1442Y384D01*
X44Y383D02*
X133Y383D01*
X1353Y383D02*
X1442Y383D01*
X44Y382D02*
X134Y382D01*
X1353Y382D02*
X1442Y382D01*
X44Y381D02*
X134Y381D01*
X1352Y381D02*
X1442Y381D01*
X44Y380D02*
X135Y380D01*
X1352Y380D02*
X1442Y380D01*
X44Y379D02*
X135Y379D01*
X1351Y379D02*
X1442Y379D01*
X44Y378D02*
X136Y378D01*
X1351Y378D02*
X1442Y378D01*
X44Y377D02*
X136Y377D01*
X1350Y377D02*
X1442Y377D01*
X44Y376D02*
X136Y376D01*
X1350Y376D02*
X1442Y376D01*
X44Y375D02*
X137Y375D01*
X1350Y375D02*
X1442Y375D01*
X44Y374D02*
X137Y374D01*
X1349Y374D02*
X1442Y374D01*
X44Y373D02*
X137Y373D01*
X1349Y373D02*
X1442Y373D01*
X44Y372D02*
X137Y372D01*
X1349Y372D02*
X1442Y372D01*
X44Y371D02*
X138Y371D01*
X1349Y371D02*
X1442Y371D01*
X44Y370D02*
X138Y370D01*
X1349Y370D02*
X1442Y370D01*
X44Y369D02*
X138Y369D01*
X1348Y369D02*
X1442Y369D01*
X44Y368D02*
X138Y368D01*
X1348Y368D02*
X1442Y368D01*
X44Y367D02*
X138Y367D01*
X1348Y367D02*
X1442Y367D01*
X44Y366D02*
X138Y366D01*
X1348Y366D02*
X1442Y366D01*
X44Y365D02*
X138Y365D01*
X1348Y365D02*
X1442Y365D01*
X44Y364D02*
X138Y364D01*
X1348Y364D02*
X1442Y364D01*
X44Y363D02*
X138Y363D01*
X1348Y363D02*
X1442Y363D01*
X44Y362D02*
X138Y362D01*
X1348Y362D02*
X1442Y362D01*
X44Y361D02*
X138Y361D01*
X1348Y361D02*
X1442Y361D01*
X44Y360D02*
X138Y360D01*
X1348Y360D02*
X1442Y360D01*
X44Y359D02*
X138Y359D01*
X1348Y359D02*
X1442Y359D01*
X44Y358D02*
X138Y358D01*
X1348Y358D02*
X1442Y358D01*
X44Y357D02*
X138Y357D01*
X1349Y357D02*
X1442Y357D01*
X44Y356D02*
X138Y356D01*
X1349Y356D02*
X1442Y356D01*
X44Y355D02*
X137Y355D01*
X1349Y355D02*
X1442Y355D01*
X44Y354D02*
X137Y354D01*
X1349Y354D02*
X1442Y354D01*
X44Y353D02*
X137Y353D01*
X1349Y353D02*
X1442Y353D01*
X44Y352D02*
X137Y352D01*
X1350Y352D02*
X1442Y352D01*
X44Y351D02*
X136Y351D01*
X1350Y351D02*
X1442Y351D01*
X44Y350D02*
X136Y350D01*
X1350Y350D02*
X1442Y350D01*
X44Y349D02*
X136Y349D01*
X1351Y349D02*
X1442Y349D01*
X44Y348D02*
X135Y348D01*
X1351Y348D02*
X1442Y348D01*
X44Y347D02*
X135Y347D01*
X1352Y347D02*
X1442Y347D01*
X44Y346D02*
X134Y346D01*
X1352Y346D02*
X1442Y346D01*
X44Y345D02*
X134Y345D01*
X1353Y345D02*
X1442Y345D01*
X44Y344D02*
X133Y344D01*
X1353Y344D02*
X1442Y344D01*
X44Y343D02*
X133Y343D01*
X1354Y343D02*
X1442Y343D01*
X44Y342D02*
X132Y342D01*
X1354Y342D02*
X1442Y342D01*
X44Y341D02*
X131Y341D01*
X1355Y341D02*
X1442Y341D01*
X44Y340D02*
X131Y340D01*
X1356Y340D02*
X1442Y340D01*
X44Y339D02*
X130Y339D01*
X1356Y339D02*
X1442Y339D01*
X44Y338D02*
X129Y338D01*
X1357Y338D02*
X1442Y338D01*
X44Y337D02*
X128Y337D01*
X1358Y337D02*
X1442Y337D01*
X44Y336D02*
X127Y336D01*
X1359Y336D02*
X1442Y336D01*
X44Y335D02*
X126Y335D01*
X1360Y335D02*
X1442Y335D01*
X44Y334D02*
X125Y334D01*
X1361Y334D02*
X1442Y334D01*
X44Y333D02*
X124Y333D01*
X1362Y333D02*
X1442Y333D01*
X44Y332D02*
X123Y332D01*
X1363Y332D02*
X1442Y332D01*
X44Y331D02*
X122Y331D01*
X1365Y331D02*
X1442Y331D01*
X44Y330D02*
X120Y330D01*
X1366Y330D02*
X1442Y330D01*
X44Y329D02*
X118Y329D01*
X1368Y329D02*
X1442Y329D01*
X44Y328D02*
X116Y328D01*
X1370Y328D02*
X1442Y328D01*
X44Y327D02*
X114Y327D01*
X1372Y327D02*
X1442Y327D01*
X44Y326D02*
X112Y326D01*
X1375Y326D02*
X1442Y326D01*
X44Y325D02*
X108Y325D01*
X1378Y325D02*
X1442Y325D01*
X44Y324D02*
X102Y324D01*
X1384Y324D02*
X1442Y324D01*
X44Y296D02*
X106Y296D01*
X1381Y296D02*
X1442Y296D01*
X44Y295D02*
X110Y295D01*
X1376Y295D02*
X1442Y295D01*
X44Y294D02*
X113Y294D01*
X1373Y294D02*
X1442Y294D01*
X44Y293D02*
X115Y293D01*
X1371Y293D02*
X1442Y293D01*
X44Y292D02*
X117Y292D01*
X1369Y292D02*
X1442Y292D01*
X44Y291D02*
X119Y291D01*
X1367Y291D02*
X1442Y291D01*
X44Y290D02*
X121Y290D01*
X1365Y290D02*
X1442Y290D01*
X44Y289D02*
X122Y289D01*
X1364Y289D02*
X1442Y289D01*
X44Y288D02*
X124Y288D01*
X1363Y288D02*
X1442Y288D01*
X44Y287D02*
X125Y287D01*
X1361Y287D02*
X1442Y287D01*
X44Y286D02*
X126Y286D01*
X1360Y286D02*
X1442Y286D01*
X44Y285D02*
X127Y285D01*
X1359Y285D02*
X1442Y285D01*
X44Y284D02*
X128Y284D01*
X1358Y284D02*
X1442Y284D01*
X44Y283D02*
X129Y283D01*
X1358Y283D02*
X1442Y283D01*
X44Y282D02*
X130Y282D01*
X1357Y282D02*
X1442Y282D01*
X44Y281D02*
X130Y281D01*
X1356Y281D02*
X1442Y281D01*
X44Y280D02*
X131Y280D01*
X1355Y280D02*
X1442Y280D01*
X44Y279D02*
X132Y279D01*
X1355Y279D02*
X1442Y279D01*
X44Y278D02*
X132Y278D01*
X1354Y278D02*
X1442Y278D01*
X44Y277D02*
X133Y277D01*
X1353Y277D02*
X1442Y277D01*
X44Y276D02*
X133Y276D01*
X1353Y276D02*
X1442Y276D01*
X44Y275D02*
X134Y275D01*
X1352Y275D02*
X1442Y275D01*
X44Y274D02*
X134Y274D01*
X1352Y274D02*
X1442Y274D01*
X44Y273D02*
X135Y273D01*
X1351Y273D02*
X1442Y273D01*
X44Y272D02*
X135Y272D01*
X1351Y272D02*
X1442Y272D01*
X44Y271D02*
X136Y271D01*
X1351Y271D02*
X1442Y271D01*
X44Y270D02*
X136Y270D01*
X1350Y270D02*
X1442Y270D01*
X44Y269D02*
X136Y269D01*
X1350Y269D02*
X1442Y269D01*
X44Y268D02*
X137Y268D01*
X1350Y268D02*
X1442Y268D01*
X44Y267D02*
X137Y267D01*
X1349Y267D02*
X1442Y267D01*
X44Y266D02*
X137Y266D01*
X1349Y266D02*
X1442Y266D01*
X44Y265D02*
X138Y265D01*
X1349Y265D02*
X1442Y265D01*
X44Y264D02*
X138Y264D01*
X1349Y264D02*
X1442Y264D01*
X44Y263D02*
X138Y263D01*
X1348Y263D02*
X1442Y263D01*
X44Y262D02*
X138Y262D01*
X1348Y262D02*
X1442Y262D01*
X44Y261D02*
X138Y261D01*
X1348Y261D02*
X1442Y261D01*
X44Y260D02*
X138Y260D01*
X1348Y260D02*
X1442Y260D01*
X44Y259D02*
X138Y259D01*
X1348Y259D02*
X1442Y259D01*
X44Y258D02*
X138Y258D01*
X1348Y258D02*
X1442Y258D01*
X44Y257D02*
X138Y257D01*
X1348Y257D02*
X1442Y257D01*
X44Y256D02*
X138Y256D01*
X1348Y256D02*
X1442Y256D01*
X44Y255D02*
X138Y255D01*
X1348Y255D02*
X1442Y255D01*
X44Y254D02*
X138Y254D01*
X1348Y254D02*
X1442Y254D01*
X44Y253D02*
X138Y253D01*
X1348Y253D02*
X1442Y253D01*
X44Y252D02*
X138Y252D01*
X1348Y252D02*
X1442Y252D01*
X44Y251D02*
X138Y251D01*
X1348Y251D02*
X1442Y251D01*
X44Y250D02*
X138Y250D01*
X1349Y250D02*
X1442Y250D01*
X44Y249D02*
X138Y249D01*
X1349Y249D02*
X1442Y249D01*
X44Y248D02*
X137Y248D01*
X1349Y248D02*
X1442Y248D01*
X44Y247D02*
X137Y247D01*
X1349Y247D02*
X1442Y247D01*
X44Y246D02*
X137Y246D01*
X1350Y246D02*
X1442Y246D01*
X44Y245D02*
X136Y245D01*
X1350Y245D02*
X1442Y245D01*
X44Y244D02*
X136Y244D01*
X1350Y244D02*
X1442Y244D01*
X44Y243D02*
X136Y243D01*
X1351Y243D02*
X1442Y243D01*
X44Y242D02*
X135Y242D01*
X1351Y242D02*
X1442Y242D01*
X44Y241D02*
X135Y241D01*
X1351Y241D02*
X1442Y241D01*
X44Y240D02*
X135Y240D01*
X1352Y240D02*
X1442Y240D01*
X44Y239D02*
X134Y239D01*
X1352Y239D02*
X1442Y239D01*
X44Y238D02*
X134Y238D01*
X1353Y238D02*
X1442Y238D01*
X44Y237D02*
X133Y237D01*
X1353Y237D02*
X1442Y237D01*
X44Y236D02*
X132Y236D01*
X1354Y236D02*
X1442Y236D01*
X44Y235D02*
X132Y235D01*
X1354Y235D02*
X1442Y235D01*
X44Y234D02*
X131Y234D01*
X1355Y234D02*
X1442Y234D01*
X44Y233D02*
X130Y233D01*
X1356Y233D02*
X1442Y233D01*
X44Y232D02*
X130Y232D01*
X1357Y232D02*
X1442Y232D01*
X44Y231D02*
X129Y231D01*
X1357Y231D02*
X1442Y231D01*
X44Y230D02*
X128Y230D01*
X1358Y230D02*
X1442Y230D01*
X44Y229D02*
X127Y229D01*
X1359Y229D02*
X1442Y229D01*
X44Y228D02*
X126Y228D01*
X1360Y228D02*
X1442Y228D01*
X44Y227D02*
X125Y227D01*
X1361Y227D02*
X1442Y227D01*
X44Y226D02*
X124Y226D01*
X1363Y226D02*
X1442Y226D01*
X44Y225D02*
X122Y225D01*
X1364Y225D02*
X1442Y225D01*
X44Y224D02*
X121Y224D01*
X1365Y224D02*
X1442Y224D01*
X44Y223D02*
X119Y223D01*
X1367Y223D02*
X1442Y223D01*
X44Y222D02*
X118Y222D01*
X1369Y222D02*
X1442Y222D01*
X44Y221D02*
X116Y221D01*
X1371Y221D02*
X1442Y221D01*
X44Y220D02*
X113Y220D01*
X1373Y220D02*
X1442Y220D01*
X44Y219D02*
X111Y219D01*
X1376Y219D02*
X1442Y219D01*
X44Y218D02*
X107Y218D01*
X1380Y218D02*
X1442Y218D01*
X44Y189D02*
X108Y189D01*
X1378Y189D02*
X1442Y189D01*
X44Y188D02*
X111Y188D01*
X1375Y188D02*
X1442Y188D01*
X44Y187D02*
X114Y187D01*
X1372Y187D02*
X1442Y187D01*
X44Y186D02*
X116Y186D01*
X1370Y186D02*
X1442Y186D01*
X44Y185D02*
X118Y185D01*
X1368Y185D02*
X1442Y185D01*
X44Y184D02*
X120Y184D01*
X1366Y184D02*
X1442Y184D01*
X44Y183D02*
X121Y183D01*
X1365Y183D02*
X1442Y183D01*
X44Y182D02*
X123Y182D01*
X1363Y182D02*
X1442Y182D01*
X44Y181D02*
X124Y181D01*
X1362Y181D02*
X1442Y181D01*
X44Y180D02*
X125Y180D01*
X1361Y180D02*
X1442Y180D01*
X44Y179D02*
X126Y179D01*
X1360Y179D02*
X1442Y179D01*
X44Y178D02*
X127Y178D01*
X1359Y178D02*
X1442Y178D01*
X44Y177D02*
X128Y177D01*
X1358Y177D02*
X1442Y177D01*
X44Y176D02*
X129Y176D01*
X1357Y176D02*
X1442Y176D01*
X44Y175D02*
X130Y175D01*
X1356Y175D02*
X1442Y175D01*
X44Y174D02*
X131Y174D01*
X1356Y174D02*
X1442Y174D01*
X44Y173D02*
X131Y173D01*
X1355Y173D02*
X1442Y173D01*
X44Y172D02*
X132Y172D01*
X1354Y172D02*
X1442Y172D01*
X44Y171D02*
X133Y171D01*
X1354Y171D02*
X1442Y171D01*
X44Y170D02*
X133Y170D01*
X1353Y170D02*
X1442Y170D01*
X44Y169D02*
X134Y169D01*
X1353Y169D02*
X1442Y169D01*
X44Y168D02*
X134Y168D01*
X1352Y168D02*
X1442Y168D01*
X44Y167D02*
X135Y167D01*
X1352Y167D02*
X1442Y167D01*
X44Y166D02*
X135Y166D01*
X1351Y166D02*
X1442Y166D01*
X44Y165D02*
X135Y165D01*
X1351Y165D02*
X1442Y165D01*
X44Y164D02*
X136Y164D01*
X1350Y164D02*
X1442Y164D01*
X44Y163D02*
X136Y163D01*
X1350Y163D02*
X1442Y163D01*
X44Y162D02*
X137Y162D01*
X1350Y162D02*
X1442Y162D01*
X44Y161D02*
X137Y161D01*
X1349Y161D02*
X1442Y161D01*
X44Y160D02*
X137Y160D01*
X1349Y160D02*
X1442Y160D01*
X44Y159D02*
X137Y159D01*
X1349Y159D02*
X1442Y159D01*
X44Y158D02*
X138Y158D01*
X1349Y158D02*
X1442Y158D01*
X44Y157D02*
X138Y157D01*
X1349Y157D02*
X1442Y157D01*
X44Y156D02*
X138Y156D01*
X1348Y156D02*
X1442Y156D01*
X44Y155D02*
X138Y155D01*
X1348Y155D02*
X1442Y155D01*
X44Y154D02*
X139Y154D01*
X1348Y154D02*
X1442Y154D01*
X44Y153D02*
X139Y153D01*
X1348Y153D02*
X1442Y153D01*
X44Y152D02*
X139Y152D01*
X1348Y152D02*
X1442Y152D01*
X44Y151D02*
X139Y151D01*
X1348Y151D02*
X1442Y151D01*
X44Y150D02*
X138Y150D01*
X1348Y150D02*
X1442Y150D01*
X44Y149D02*
X138Y149D01*
X1348Y149D02*
X1442Y149D01*
X44Y148D02*
X138Y148D01*
X1348Y148D02*
X1442Y148D01*
X44Y147D02*
X138Y147D01*
X1348Y147D02*
X1442Y147D01*
X44Y146D02*
X138Y146D01*
X1348Y146D02*
X1442Y146D01*
X44Y145D02*
X138Y145D01*
X1348Y145D02*
X1442Y145D01*
X44Y144D02*
X138Y144D01*
X1348Y144D02*
X1442Y144D01*
X44Y143D02*
X138Y143D01*
X1349Y143D02*
X1442Y143D01*
X44Y142D02*
X137Y142D01*
X1349Y142D02*
X1442Y142D01*
X44Y141D02*
X137Y141D01*
X1349Y141D02*
X1442Y141D01*
X44Y140D02*
X137Y140D01*
X1349Y140D02*
X1442Y140D01*
X44Y139D02*
X137Y139D01*
X1350Y139D02*
X1442Y139D01*
X44Y138D02*
X136Y138D01*
X1350Y138D02*
X1442Y138D01*
X44Y137D02*
X136Y137D01*
X1350Y137D02*
X1442Y137D01*
X44Y136D02*
X136Y136D01*
X1351Y136D02*
X1442Y136D01*
X44Y135D02*
X135Y135D01*
X1351Y135D02*
X1442Y135D01*
X44Y134D02*
X135Y134D01*
X1351Y134D02*
X1442Y134D01*
X44Y133D02*
X134Y133D01*
X1352Y133D02*
X1442Y133D01*
X44Y132D02*
X134Y132D01*
X1352Y132D02*
X1442Y132D01*
X44Y131D02*
X133Y131D01*
X1353Y131D02*
X1442Y131D01*
X44Y130D02*
X133Y130D01*
X1354Y130D02*
X1442Y130D01*
X44Y129D02*
X132Y129D01*
X1354Y129D02*
X1442Y129D01*
X44Y128D02*
X132Y128D01*
X1355Y128D02*
X1442Y128D01*
X44Y127D02*
X131Y127D01*
X1355Y127D02*
X1442Y127D01*
X44Y126D02*
X130Y126D01*
X1356Y126D02*
X1442Y126D01*
X44Y125D02*
X129Y125D01*
X1357Y125D02*
X1442Y125D01*
X44Y124D02*
X129Y124D01*
X1358Y124D02*
X1442Y124D01*
X44Y123D02*
X128Y123D01*
X1359Y123D02*
X1442Y123D01*
X44Y122D02*
X127Y122D01*
X1360Y122D02*
X1442Y122D01*
X44Y121D02*
X126Y121D01*
X1361Y121D02*
X1442Y121D01*
X44Y120D02*
X125Y120D01*
X1362Y120D02*
X1442Y120D01*
X44Y119D02*
X123Y119D01*
X1363Y119D02*
X1442Y119D01*
X44Y118D02*
X122Y118D01*
X1364Y118D02*
X1442Y118D01*
X44Y117D02*
X120Y117D01*
X1366Y117D02*
X1442Y117D01*
X44Y116D02*
X119Y116D01*
X1368Y116D02*
X1442Y116D01*
X44Y115D02*
X117Y115D01*
X1369Y115D02*
X1442Y115D01*
X44Y114D02*
X115Y114D01*
X1371Y114D02*
X1442Y114D01*
X44Y113D02*
X112Y113D01*
X1374Y113D02*
X1442Y113D01*
X44Y112D02*
X109Y112D01*
X1377Y112D02*
X1442Y112D01*
X44Y111D02*
X104Y111D01*
X1382Y111D02*
X1442Y111D01*
D02*
G04 End of Mask1*
M02*